<svg xmlns="http://www.w3.org/2000/svg" fill="none" viewBox="0 0 390 78" height="78" width="390">
<path fill="#F9423A" d="M368.429 61.1487C372.194 61.1487 375.557 63.8571 375.557 68.0712C375.557 72.3017 372.199 75.0317 368.429 75.0317C364.665 75.0317 361.301 72.3017 361.301 68.0712C361.301 63.8571 364.659 61.1487 368.429 61.1487ZM368.429 73.5421C371.305 73.5421 373.662 71.24 373.662 68.0658C373.662 64.9133 371.305 62.6275 368.429 62.6275C365.515 62.6275 363.197 64.9079 363.197 68.0658C363.191 71.24 365.515 73.5421 368.429 73.5421ZM365.661 64.1712H368.592C370.542 64.1712 371.636 64.7833 371.636 66.4733C371.636 67.9033 370.747 68.4558 369.594 68.5533L371.674 71.9496H370.06L368.169 68.6292H367.205V71.9496H365.667V64.1712H365.661ZM367.205 67.4212H368.575C369.447 67.4212 370.097 67.2912 370.097 66.3433C370.097 65.5092 369.209 65.3792 368.5 65.3792H367.2V67.4212H367.205Z"></path>
<path fill="#F9423A" d="M375.553 17.4308H356.692V75.0262H335.296V17.4308H316.744V2.97375H375.547V17.4308H375.553Z"></path>
<path fill="#F9423A" d="M74.1641 54.5729C74.1641 60.1954 72.6582 65.1138 68.5036 69.3225C64.3545 73.515 59.5066 75.0317 53.9653 75.0317H14.4453V2.97375H53.9707C59.5607 2.97375 64.4249 4.48501 68.5524 8.66667C72.6745 12.8429 74.1695 17.7721 74.1695 23.4379C74.1695 29.0171 72.3332 34.4013 68.6716 38.4367C72.3332 42.5208 74.1695 47.1575 74.1695 52.3467V54.5729H74.1641ZM52.7682 24.4346C52.7682 22.5604 52.1941 20.8 50.8236 19.4025C49.4532 18.0104 47.7307 17.4308 45.8945 17.4308H35.8411V31.8771H45.8945C47.8282 31.8771 49.5778 31.2488 50.8941 29.7646C52.2211 28.2642 52.7682 26.4117 52.7682 24.4346ZM52.7682 53.2458C52.7682 51.3933 52.1941 49.66 50.8236 48.2896C49.4532 46.9138 47.7307 46.3342 45.8945 46.3342H35.8411V60.5908H45.8945C47.8282 60.5908 49.5778 59.9679 50.8941 58.4892C52.2211 57.0267 52.7682 55.1958 52.7682 53.2458Z"></path>
<path fill="#F9423A" d="M178.685 2.97375C173.165 2.97375 171.091 7.69167 170.479 10.4054C169.688 13.8992 162.949 42.5317 162.814 43.1275C162.679 42.5371 155.935 13.9046 155.144 10.4054C154.532 7.69167 152.457 2.97375 146.938 2.97375C144.809 2.97375 131.885 2.97375 131.885 2.97375L152.609 75.0317H173.024L193.743 2.97375C193.743 2.97375 180.814 2.97375 178.685 2.97375Z"></path>
<path fill="#F9423A" d="M129.56 17.4688V2.97375H88.0686C81.8015 2.97375 76.7207 8.05459 76.7207 14.3217V63.6513C76.7207 69.9183 81.8015 74.9992 88.0686 74.9992H92.8949C93.0032 75.0046 93.1061 75.0317 93.2145 75.0317H129.566V60.5421H98.1219V46.3342H128.423V31.8771H98.1219V17.4688H129.56Z"></path>
<path fill="#F9423A" d="M313.17 17.4688V2.97375H271.678C265.411 2.97375 260.33 8.05459 260.33 14.3217V63.6513C260.33 69.9183 265.411 74.9992 271.678 74.9992H276.504C276.613 75.0046 276.716 75.0317 276.824 75.0317H313.175V60.5421H281.731V46.3342H312.032V31.8771H281.731V17.4688H313.17Z"></path>
<path fill="#F9423A" d="M235.716 2.97375V42.4992C232.547 36.0588 219.634 9.76626 218.935 8.28751C217.911 6.11001 215.404 2.97375 210.193 2.97375H196.396V75.0317H216.996V36.92C216.996 36.92 232.222 68.0821 233.013 69.7558C234.037 71.9388 236.22 75.0317 241.913 75.0317C244.811 75.0317 256.326 75.0317 256.326 75.0317V2.97375H235.716Z"></path>
</svg>
