<svg xmlns="http://www.w3.org/2000/svg" fill="none" viewBox="0 0 400 71" height="71" width="400">
<g clip-path="url(#clip0_16_41)">
<path fill="#F9423A" d="M0 69.0496V0H30.7981C43.9236 0 50.6739 8.39095 50.6739 17.5788C50.6739 26.1573 45.283 32.0638 38.7671 33.4232C46.2206 34.5482 52.0333 41.7204 52.0333 50.2988C52.0333 60.7524 45.1893 69.0496 31.97 69.0496H0ZM35.6733 20.2039C35.6733 15.9381 32.5794 12.938 27.6105 12.938H14.7193V27.4229H27.6105C32.5794 27.4229 35.6733 24.6572 35.6733 20.2039ZM37.0327 48.2363C37.0327 43.8767 33.9388 40.361 28.2199 40.361H14.7193V56.1116H28.2667C33.7044 56.1116 37.0327 53.2052 37.0327 48.2363Z"></path>
<path fill="#F9423A" d="M56.0645 49.0332V19.032H69.2837V48.6113C69.2837 54.5646 72.8932 58.8773 79.9248 58.8773C86.8625 58.8773 90.5189 54.5646 90.5189 48.6113V19.032H103.691V48.9863C103.691 61.5493 96.1441 70.3621 79.9716 70.3621C63.7991 70.3621 56.0645 61.4555 56.0645 49.0332Z"></path>
<path fill="#F9423A" d="M108.051 69.0496V59.2054L130.599 30.5168H108.051V19.032H148.505V28.4542L125.536 57.5648H148.927V69.0496H108.051Z"></path>
<path fill="#F9423A" d="M153.24 69.0496V59.2054L175.788 30.5168H153.24V19.032H193.695V28.4542L170.725 57.5648H194.117V69.0496H153.24Z"></path>
<path fill="#F9423A" d="M199.039 69.0496V0H246.947V12.938H213.758V27.4229H238.744V40.361H213.758V69.0496H199.039Z"></path>
<path fill="#F9423A" d="M242.447 44.0174C242.447 29.5324 253.229 17.8132 268.323 17.8132C283.324 17.8132 293.355 29.0168 293.355 45.2361V48.33H256.182C257.12 54.424 262.089 59.5336 270.573 59.5336C274.839 59.5336 280.605 57.7523 283.84 54.6584L289.746 63.3775C284.777 67.9245 276.902 70.3153 269.167 70.3153C253.932 70.3153 242.447 60.0492 242.447 44.0174ZM268.323 28.5949C260.167 28.5949 256.604 34.267 256.088 39.2359H280.746C280.324 34.4545 276.995 28.5949 268.323 28.5949Z"></path>
<path fill="#F9423A" d="M296.918 44.0174C296.918 29.5324 307.7 17.8132 322.794 17.8132C337.795 17.8132 347.826 29.0168 347.826 45.2361V48.33H310.653C311.59 54.424 316.559 59.5336 325.044 59.5336C329.31 59.5336 335.076 57.7523 338.31 54.6584L344.217 63.3775C339.248 67.9245 331.372 70.3153 323.638 70.3153C308.403 70.3153 296.918 60.0492 296.918 44.0174ZM322.794 28.5949C314.637 28.5949 311.075 34.267 310.559 39.2359H335.216C334.794 34.4545 331.466 28.5949 322.794 28.5949Z"></path>
<path fill="#F9423A" d="M352.654 69.1433V18.9382H372.811C388.609 18.9382 400 28.4074 400 44.0174C400 59.5805 388.656 69.1433 372.905 69.1433H352.654ZM387.203 44.0174C387.203 36.2358 382.515 29.7668 373.327 29.7668H365.17V58.3148H373.327C382.093 58.3148 387.203 51.4708 387.203 44.0174Z"></path>
</g>
<defs>
<clipPath id="clip0_16_41">
<rect fill="white" height="70.3621" width="400"></rect>
</clipPath>
</defs>
</svg>
