<svg xmlns="http://www.w3.org/2000/svg" fill="none" viewBox="0 0 330 90" height="90" width="330">
<path fill="#F9423A" d="M186.945 30.03C186.945 20.46 187.11 11.55 187.605 3.3L162.36 8.085V10.395L164.835 10.725C166.65 10.89 167.805 11.55 168.465 12.54C169.125 13.695 169.62 15.345 169.95 17.82C170.28 22.605 170.61 33.495 170.445 50.655C170.445 67.65 170.28 78.375 169.95 82.5C179.025 84.48 186.12 85.305 191.4 85.305C201.3 85.305 209.055 82.5 214.665 76.725C220.275 71.115 223.245 63.195 223.245 53.46C223.245 45.705 221.1 39.27 216.81 34.155C212.52 29.04 207.075 26.565 200.64 26.565C196.35 26.565 191.895 27.72 186.945 30.03ZM187.44 80.85C187.11 75.57 186.78 59.73 186.78 33.825C188.265 33.33 190.245 33 192.72 33C196.68 33 199.815 34.98 202.125 39.105C204.435 43.23 205.59 48.18 205.59 54.45C205.59 62.205 204.27 68.475 201.63 73.755C198.99 78.87 195.69 81.51 191.565 81.51C190.245 81.18 188.925 81.015 187.44 80.85ZM67.6504 4.95H1.65039V8.25L5.11539 8.58C7.75539 9.075 9.57039 10.065 10.7254 11.55C11.8804 13.2 12.5404 15.84 12.7054 19.47C14.0254 37.29 14.0254 53.955 12.7054 69.3C12.3754 72.93 11.7154 75.57 10.7254 77.22C9.57039 78.87 7.75539 79.86 5.11539 80.19L1.65039 80.685V83.985H44.2204V80.685L39.7654 80.355C37.1254 80.025 35.3104 78.87 34.1554 77.385C33.0004 75.735 32.3404 73.095 32.1754 69.465C31.6804 62.865 31.3504 55.275 31.3504 46.86L40.2604 47.025C45.0454 47.19 48.3454 50.82 49.9954 58.08H53.2954V31.185H49.9954C48.3454 38.28 45.2104 41.91 40.2604 42.075L31.3504 42.24C31.3504 27.39 31.6804 16.83 32.1754 10.395H45.2104C54.4504 10.395 60.7204 16.335 64.3504 28.215L68.3104 27.06L67.6504 4.95ZM59.8954 55.77C59.8954 64.35 62.3704 71.445 67.1554 77.055C71.9404 82.665 79.0354 85.305 87.9454 85.305C96.8554 85.305 104.115 82.5 109.395 76.725C114.675 71.115 117.15 64.02 117.15 55.44C117.15 46.86 114.675 39.765 109.89 34.155C105.105 28.545 98.0104 25.905 89.1004 25.905C80.1904 25.905 72.9304 28.71 67.6504 34.485C62.3704 40.095 59.8954 47.19 59.8954 55.77ZM96.6904 36.96C98.6704 41.745 99.4954 48.015 99.4954 55.605C99.4954 73.095 95.8654 81.675 88.7704 81.675C85.1404 81.675 82.3354 79.2 80.3554 74.25C78.3754 69.3 77.5504 63.03 77.5504 55.605C77.5504 38.28 81.1804 29.7 88.2754 29.7C91.9054 29.535 94.7104 32.01 96.6904 36.96ZM236.115 77.055C241.56 82.5 248.49 85.305 256.74 85.305C261.855 85.305 266.31 84.315 270.27 82.17C274.23 80.19 277.365 77.715 279.51 74.745L277.86 72.765C274.23 75.57 270.105 76.89 265.32 76.89C258.72 76.89 253.605 74.745 250.14 70.29C246.51 65.835 244.86 60.225 245.19 52.965H280.5C280.5 45.045 278.52 38.61 274.395 33.495C270.27 28.545 264.495 26.07 257.07 26.07C247.83 26.07 240.735 29.04 235.62 34.815C230.505 40.59 228.03 47.685 228.03 56.1C228.03 64.68 230.67 71.61 236.115 77.055ZM248.325 35.64C250.14 31.68 252.45 29.7 255.585 29.7C260.535 29.7 263.01 35.97 263.01 48.675L245.52 49.005C245.685 44.055 246.51 39.6 248.325 35.64ZM324.885 29.04C320.43 27.06 314.82 25.905 308.055 25.905C301.125 25.905 295.68 27.72 291.555 31.185C287.43 34.65 285.285 38.94 285.285 44.055C285.285 48.51 286.605 51.975 289.08 54.45C291.555 56.925 295.515 59.07 300.63 60.885C305.25 62.535 308.55 64.185 310.2 65.67C311.85 67.32 312.84 69.135 312.84 71.61C312.84 73.92 312.015 76.065 310.2 77.715C308.55 79.53 306.24 80.355 303.27 80.355C296.01 80.355 290.565 75.075 286.77 64.515L283.965 65.34L284.625 81.84C290.565 84.15 297.165 85.305 304.425 85.305C312.015 85.305 317.79 83.655 322.08 80.19C326.37 76.89 328.515 72.105 328.515 66.165C328.515 62.205 327.525 58.905 325.38 56.43C323.235 53.955 319.77 51.81 314.82 49.83C309.375 47.85 305.58 46.035 303.6 44.385C301.62 42.735 300.63 40.755 300.63 38.28C300.63 35.805 301.29 33.825 302.775 32.175C304.26 30.525 306.075 29.865 308.385 29.865C314.985 29.865 319.77 34.65 322.74 44.055L325.545 43.23L324.885 29.04ZM166.155 27.555C163.845 26.4 161.37 25.905 158.565 25.905C155.76 25.905 152.955 27.06 149.82 29.37C146.685 31.68 144.375 34.815 142.56 39.105L142.725 25.905L117.645 30.855V33.165L120.12 33.33C123.255 33.66 125.07 36.135 125.4 40.59C126.39 50.82 126.39 61.71 125.4 73.26C125.07 77.715 123.255 80.025 120.12 80.52L117.645 80.85V83.985H152.625V80.85L148.17 80.52C145.035 80.19 143.22 77.715 142.89 73.26C141.9 63.69 141.735 53.46 142.56 42.9C143.55 41.25 145.695 40.26 148.995 39.93C152.295 39.6 156.09 40.59 160.05 42.9L166.155 27.555Z"></path>
</svg>
