<svg width="367" height="306" viewBox="0 0 367 306" fill="none" xmlns="http://www.w3.org/2000/svg">
<path d="M276.685 261.379C270.416 263.617 264.173 265.539 257.863 267.226C252.945 268.539 247.998 269.744 243.004 270.705C239.21 271.386 235.375 271.805 231.525 271.959C224.504 272.191 217.477 271.985 210.484 271.342C204.914 271.053 199.369 270.398 193.886 269.381C187.887 268.286 182.037 266.495 176.454 264.045C172.228 262.079 168.217 259.679 164.487 256.882C161.562 254.703 158.852 252.271 156.093 249.888C152.223 246.575 148.216 243.427 144.679 239.755C139.349 234.447 134.695 228.497 130.824 222.04C128.287 217.59 125.987 213.008 123.934 208.313C121.503 202.936 119.734 197.281 118.666 191.472C117.705 185.928 117.331 180.297 117.55 174.671C117.722 169.311 118.181 163.962 118.925 158.65C119.709 153.233 121.05 147.911 122.927 142.769C123.734 140.389 124.54 138.009 125.647 135.747C127.943 130.948 130.836 126.459 134.257 122.388C137.705 118.272 141.339 114.322 145.16 110.538C149.992 105.682 155.463 101.512 161.419 98.1425C164.952 96.1818 168.467 94.1334 172.125 92.3779C176.336 90.4654 180.655 88.8035 185.06 87.4012C193.659 84.6275 202.454 82.5142 211.369 81.0795C221.817 79.1972 232.531 79.4551 242.865 81.8376C250.126 83.516 257.391 85.131 264.538 87.1452C267.744 88.1353 270.838 89.4562 273.771 91.0869C278.051 93.2855 282.277 95.596 286.576 97.7363C290.558 99.7938 294.253 102.364 297.569 105.383C302.587 109.881 307.245 114.768 311.501 119.999C316.604 126.42 320.397 133.788 322.665 141.685C325.806 151.703 327.944 162.012 329.047 172.46C330.523 187.175 328.299 202.036 322.58 215.684C316.86 229.333 307.827 241.335 296.305 250.594C292.195 253.8 287.737 256.527 283.015 258.722C280.921 259.738 278.725 260.524 276.685 261.379Z" fill="white"/>
<g style="mix-blend-mode:multiply">
<g style="mix-blend-mode:multiply">
<path d="M281.281 261.83C274.953 264.097 268.676 266.023 262.299 267.72C257.346 269.037 252.366 270.247 247.333 271.228C243.508 271.904 239.641 272.318 235.761 272.467C228.686 272.69 221.605 272.465 214.561 271.795C208.932 271.491 203.33 270.812 197.793 269.76C191.729 268.649 185.817 266.832 180.176 264.346C175.898 262.327 171.843 259.862 168.08 256.992C165.116 254.784 162.402 252.318 159.599 249.92C155.715 246.554 151.655 243.371 148.098 239.66C142.719 234.29 138.01 228.285 134.075 221.774C131.519 217.264 129.202 212.621 127.132 207.866C124.675 202.425 122.885 196.703 121.802 190.826C120.83 185.219 120.445 179.525 120.653 173.835C120.816 168.442 121.28 163.062 122.044 157.721C122.818 152.244 124.158 146.861 126.042 141.66C126.853 139.265 127.664 136.871 128.781 134.58C131.091 129.736 134.005 125.204 137.451 121.094C140.921 116.942 144.578 112.956 148.422 109.137C153.284 104.222 158.795 99.9986 164.799 96.5856C168.391 94.5473 171.925 92.4892 175.602 90.7727C179.848 88.8407 184.205 87.1643 188.649 85.7525C197.299 82.9562 206.148 80.8283 215.119 79.3876C225.655 77.5012 236.458 77.7727 246.877 80.1856C254.196 81.8837 261.519 83.5184 268.729 85.5864C271.965 86.5841 275.087 87.92 278.044 89.5723C282.358 91.8149 286.637 94.111 290.965 96.3098C294.98 98.4007 298.707 101.004 302.055 104.054C307.122 108.632 311.822 113.604 316.111 118.924C321.261 125.429 325.089 132.885 327.38 140.873C330.562 151.002 332.732 161.426 333.858 171.991C335.395 186.852 333.192 201.872 327.451 215.677C321.709 229.481 312.613 241.63 300.993 251.011C296.862 254.257 292.372 257.012 287.611 259.221C285.493 260.164 283.292 260.965 281.281 261.83Z" fill="#FD5F00"/>
</g>
</g>
<path d="M231.699 69.9169C235.48 69.5701 238.694 72.0426 238.288 75.7299C237.488 84.5116 235.48 93.143 232.322 101.378C231.607 103.316 230.771 105.208 229.82 107.041C229.29 108.111 228.456 109 227.424 109.594C226.391 110.189 225.206 110.463 224.02 110.382C223.141 110.33 222.288 110.064 221.535 109.606C220.783 109.148 220.153 108.513 219.701 107.756C219.249 106.998 218.988 106.141 218.94 105.259C218.893 104.376 219.06 103.495 219.429 102.691C220.05 101.144 220.788 99.6357 221.424 98.0933C223.96 91.6845 225.641 84.9696 226.423 78.1231C226.518 76.9873 226.684 75.8585 226.919 74.7431C227.089 73.9151 227.422 73.1294 227.9 72.4329C228.379 71.7364 228.992 71.1434 229.703 70.6893C230.332 70.3447 231.003 70.085 231.699 69.9169V69.9169Z" fill="white"/>
<g style="mix-blend-mode:multiply">
<g style="mix-blend-mode:multiply">
<path d="M231.789 68.7915C235.774 68.3675 239.134 71.0355 238.673 74.8833C237.84 84.0636 235.748 93.0877 232.457 101.7C231.7 103.738 230.82 105.728 229.822 107.66C229.267 108.777 228.397 109.706 227.32 110.331C226.244 110.956 225.008 111.25 223.768 111.176C222.847 111.119 221.954 110.838 221.166 110.358C220.378 109.878 219.718 109.213 219.244 108.42C218.77 107.627 218.495 106.729 218.443 105.805C218.391 104.88 218.564 103.957 218.946 103.113C219.607 101.498 220.384 99.9216 221.035 98.2867C223.7 91.5881 225.458 84.5638 226.263 77.4012C226.374 76.2095 226.549 75.0243 226.785 73.8508C226.965 72.9852 227.317 72.1643 227.82 71.437C228.322 70.7098 228.965 70.0909 229.71 69.6172C230.364 69.2508 231.063 68.9731 231.789 68.7915V68.7915Z" fill="#5D4107"/>
</g>
</g>
<path d="M227.752 78.5078C228.276 77.8227 228.776 77.1131 229.242 76.3595C230.267 74.6466 230.621 72.6136 230.234 70.657C230.138 70.2466 229.967 69.8578 229.731 69.51C227.194 65.4752 223.92 61.9585 220.081 59.1444C213.07 53.3325 205.23 48.6081 196.82 45.1281C188.891 41.8505 180.625 39.4543 172.172 37.9823C164.235 36.7406 156.143 36.8379 148.231 38.2703C140.064 39.85 132.037 42.0891 124.227 44.9658C124.227 44.9658 116.862 47.5654 114.003 48.9729C106.935 52.2753 100.142 56.0611 93.4109 59.9008C86.8537 63.6064 80.0505 66.8542 73.0499 69.621C67.1048 72.0504 60.9546 73.8894 54.7653 75.7477C53.2132 76.2147 51.6517 76.6135 50.1138 77.1341C49.6743 77.2413 49.2603 77.4354 48.8962 77.7051C48.532 77.9748 48.2251 78.3145 47.9933 78.7045C47.7616 79.0945 47.6097 79.5268 47.5465 79.976C47.4834 80.4252 47.5103 80.8824 47.6257 81.3206C47.7425 81.8072 47.9662 82.2612 48.2806 82.6493C48.5951 83.0374 48.9922 83.3499 49.443 83.5639C50.6448 84.1933 51.9015 84.7116 53.1975 85.1125C59.2645 87.3469 65.2721 89.7565 71.5265 91.5335C77.5482 93.2317 83.5254 95.0614 89.7159 96.1657C90.7939 96.3769 91.854 96.6707 92.8869 97.0446C98.6237 99.0476 104.589 100.325 110.644 100.847C117.847 101.546 125.01 102.459 132.26 102.733C139.489 102.849 146.72 102.571 153.922 101.901C153.922 101.901 182.484 79.025 227.752 78.5078Z" fill="white"/>
<g style="mix-blend-mode:multiply">
<g style="mix-blend-mode:multiply">
<path d="M111.096 47.6467C103.775 51.0749 96.7424 54.9914 89.7676 59.025C82.9785 62.837 75.9381 66.1782 68.6959 69.0252C62.5464 71.5318 56.1771 73.4431 49.8029 75.369C48.2117 75.8554 46.5822 76.2636 45.0003 76.8183C44.2902 76.9938 43.6517 77.3867 43.1735 77.9426C42.6953 78.4984 42.4012 79.1894 42.3321 79.9196C42.263 80.6498 42.4223 81.3829 42.7879 82.017C43.1535 82.6511 43.7071 83.1546 44.372 83.4577C45.619 84.0997 46.9168 84.6373 48.2524 85.0652C54.5521 87.3784 60.7583 89.8716 67.2357 91.7079C73.461 93.4751 79.6613 95.364 86.0801 96.4643C87.2006 96.6739 88.3005 96.9812 89.3673 97.3827C95.3107 99.4527 101.489 100.775 107.76 101.319C115.216 102.038 122.621 103 130.133 103.267C137.612 103.389 145.092 103.109 152.543 102.427C161.833 101.684 171.041 100.12 180.061 97.7523C188.749 95.5522 197.366 93.1115 205.915 90.4301C208.211 89.727 210.594 89.3459 212.972 88.7357C220.266 86.9474 226.591 82.3921 230.617 76.0283C231.678 74.2551 232.044 72.1514 231.644 70.1261C231.549 69.6966 231.373 69.2893 231.127 68.9255C228.492 64.7538 225.101 61.1154 221.13 58.198C213.869 52.1759 205.748 47.2797 197.037 43.6719C188.826 40.2803 180.266 37.8061 171.511 36.2939C163.295 34.9939 154.915 35.0935 146.725 36.5885C138.271 38.22 129.961 40.538 121.879 43.5197C121.879 43.5197 114.14 46.2203 111.096 47.6467Z" fill="#166938"/>
</g>
</g>
<path d="M310.831 147.523C312.142 148.439 312.064 150.056 312.474 151.335C313.555 154.491 314.18 157.789 314.327 161.126C314.34 161.423 314.619 161.843 314.201 161.978C313.782 162.113 313.702 161.679 313.451 161.513C313.758 160.171 313.586 158.765 312.965 157.539L312.687 156.111C312.761 155.036 312.441 153.973 311.788 153.12C311.872 152.872 311.966 152.595 311.685 152.37C311.752 152.124 311.738 151.864 311.645 151.628C311.553 151.392 311.388 151.192 311.174 151.057C310.645 151.708 311.163 152.095 311.364 152.554C311.565 153.012 311.473 152.997 311.51 153.222C311.63 154.269 311.926 155.289 312.385 156.236C312.316 156.736 312.404 157.244 312.639 157.689L313.475 161.488C313.425 164.092 313.735 166.689 314.394 169.205L314.396 169.776C314.396 169.776 314.513 169.718 314.527 169.674C314.542 169.63 314.671 169.25 314.399 169.191L314.864 167.818C315.152 169.267 315.212 170.427 315.4 171.548C315.587 172.669 314.055 172.981 314.562 174.308C314.816 174.865 314.847 175.499 314.651 176.079C314.454 176.66 314.044 177.144 313.504 177.432C313.026 177.694 313.763 178.725 312.813 179.184C312.711 178.269 312.687 177.346 312.742 176.426C312.854 175.666 312.491 175.494 311.976 175.483C311.461 175.471 311.424 176.06 311.368 176.465C311.349 176.679 311.369 176.896 311.427 177.103C311.578 177.805 311.588 178.639 310.795 178.728C310.003 178.818 309.809 178.052 309.886 177.297C309.99 176.991 309.97 176.382 309.376 176.506C308.783 176.631 308.945 177.06 309.04 177.499C309.29 178.097 309.39 178.748 309.329 179.395C309.268 180.042 309.049 180.664 308.692 181.206C308.42 177.989 307.446 175.315 307.535 172.562C306.575 173.865 306.48 174.337 306.649 176.998C306.666 177.281 306.752 177.554 306.775 177.822C306.797 178.09 306.792 178.967 306.204 178.98C305.616 178.992 305.659 178.339 305.667 177.935C305.686 177.209 305.918 176.572 304.743 176.499C304.029 176.453 304.215 175.523 304.082 174.957C303.769 173.728 304.312 172.365 303.561 171.183L303.51 170.905L303.373 171.071L303.605 171.149C302.876 172.774 303.57 174.507 303.312 176.177C303.223 176.44 303.512 176.879 303.035 176.995C302.967 177.009 302.896 177.008 302.829 176.991C302.761 176.975 302.698 176.943 302.644 176.898C302.591 176.853 302.548 176.797 302.52 176.733C302.491 176.669 302.477 176.6 302.479 176.53C302.503 176.329 302.477 176.126 302.403 175.939C302.329 175.751 302.21 175.585 302.056 175.456C301.902 175.326 301.719 175.237 301.522 175.196C301.325 175.156 301.121 175.165 300.928 175.223C300.267 175.308 300.893 176.285 300.172 176.594C299.338 175.661 299.889 174.513 299.842 173.455C299.795 172.398 299.549 171.305 298.269 170.872L298.257 173.683C297.386 173.095 297.488 172.413 297.443 171.78C297.084 166.141 297.056 160.386 295.628 154.889C294.592 150.361 293.079 145.959 291.114 141.755C288.739 137.044 286.408 132.299 283.716 127.757C280.804 122.791 276.727 118.617 271.838 115.595C270.101 114.502 268.511 113.117 266.254 112.938C265.875 112.908 264.354 113.092 265.217 111.692C265.035 111.574 264.84 111.475 264.636 111.398C262.285 110.78 260.347 109.082 257.887 108.737C257.58 108.664 257.307 108.486 257.118 108.232C258.343 107.994 259.595 107.941 260.834 108.075C259.194 107.129 257.218 106.98 255.73 105.727C256.979 105.63 256.797 103.534 258.864 103.941C258.209 103.531 257.455 103.309 256.682 103.299C256.505 103.327 256.323 103.318 256.15 103.272C255.976 103.227 255.813 103.147 255.672 103.037C255.53 102.926 255.412 102.788 255.326 102.63C255.24 102.472 255.186 102.299 255.169 102.119C255.033 101.325 255.064 101.091 255.81 101.376C257.119 101.819 258.572 101.644 260.154 102.571C259.831 99.8412 257.3 100.758 256.321 99.5312C256.935 99.2508 257.949 99.5127 258.081 98.4997C258.205 98.1347 258.719 98.195 259.117 98.2647C260.655 98.5091 262.275 98.9438 263.841 99.3442C265.635 99.7893 267.535 99.7329 269.381 100.31C273.089 101.552 276.611 103.292 279.85 105.484C283.354 107.607 286.623 110.095 289.606 112.907C291.413 114.733 293.113 116.662 294.699 118.685C296.502 120.923 298.582 123.012 300.209 125.434C301.546 127.395 302.76 129.437 303.843 131.549C306.459 136.301 308.792 141.206 310.829 146.236C310.997 146.7 311.47 147.169 310.879 147.669C310.757 147.621 310.648 147.545 310.561 147.447C310.473 147.35 310.408 147.233 310.372 147.107C309.338 144.673 308.265 142.259 307.153 139.864C307.027 139.457 306.818 139.081 306.539 138.759C306.26 138.438 305.917 138.178 305.533 137.997L310.944 151.305C311.663 149.66 310.183 148.67 310.831 147.523ZM301.26 129.127C301.299 129.01 301.373 128.791 301.116 128.834C300.858 128.877 301.032 129.082 301.167 129.161C300.999 129.657 301.241 129.853 301.633 129.986C301.69 130.249 301.755 130.63 302.048 130.485C302.34 130.339 301.997 130.06 301.911 129.836C301.868 129.673 301.787 129.524 301.673 129.4C301.56 129.277 301.418 129.183 301.26 129.127V129.127ZM297.741 164.296C297.652 165.028 297.765 165.77 298.068 166.441C298.342 165.708 298.345 164.901 298.077 164.166L297.881 161.251C297.54 162.232 297.492 163.29 297.741 164.296V164.296ZM283.631 125.71L284.031 125.439C282.62 123.129 280.753 121.134 278.545 119.576L283.631 125.71ZM304.917 136.177C304.904 135.403 304.698 134.645 304.317 133.972C303.936 133.3 303.392 132.735 302.736 132.329C303.505 133.599 303.457 135.177 304.917 136.177ZM283.951 125.819C283.991 126.467 284.158 126.93 284.872 126.928C284.887 126.794 284.875 126.659 284.836 126.53C284.797 126.401 284.732 126.282 284.645 126.179C284.559 126.077 284.452 125.993 284.332 125.933C284.211 125.874 284.08 125.84 283.946 125.833L283.951 125.819ZM302.887 131.452C302.751 131.252 302.598 131.064 302.429 130.89C302.168 130.656 302.099 130.909 302.039 131.084C302.02 131.132 302.011 131.183 302.015 131.235C302.018 131.286 302.033 131.336 302.058 131.381C302.084 131.426 302.119 131.464 302.162 131.493C302.204 131.522 302.253 131.541 302.304 131.548C302.4 131.597 302.537 131.529 302.882 131.467L302.887 131.452ZM305.391 136.598C305.1 136.499 304.94 136.445 304.953 136.645C304.983 136.858 305.073 137.058 305.212 137.221C305.361 137.402 305.537 137.217 305.528 137.1C305.505 136.931 305.457 136.767 305.386 136.612L305.391 136.598ZM284.95 127.557C284.998 127.655 285.022 127.777 285.09 127.816C285.157 127.855 285.25 127.87 285.367 127.812C285.319 127.69 285.261 127.573 285.194 127.46C285.194 127.46 285.023 127.533 284.945 127.572L284.95 127.557Z" fill="white"/>
<g style="mix-blend-mode:multiply">
<path d="M308.296 149.17C309.612 150.072 309.534 151.689 309.938 152.982C311.016 156.14 311.641 159.437 311.792 162.774C311.8 163.085 312.079 163.506 311.675 163.645C311.271 163.785 311.167 163.327 310.915 163.16C311.22 161.823 311.047 160.421 310.425 159.202C310.345 158.719 310.246 158.246 310.152 157.758C310.217 156.685 309.898 155.625 309.252 154.768C309.337 154.52 309.426 154.257 309.16 154.037C309.221 153.789 309.203 153.529 309.108 153.292C309.014 153.056 308.848 152.855 308.634 152.719C308.11 153.356 308.622 153.757 308.829 154.201L308.985 154.889C309.094 155.935 309.392 156.951 309.865 157.889C309.778 158.389 309.86 158.904 310.099 159.351L310.935 163.151C310.887 165.749 311.198 168.342 311.859 170.853L311.875 171.428C311.875 171.428 311.972 171.38 311.987 171.336C312.002 171.292 312.136 170.898 311.859 170.853L312.329 169.466C312.616 170.914 312.677 172.074 312.874 173.215C313.071 174.356 311.515 174.643 312.022 175.97C312.275 176.524 312.307 177.155 312.111 177.734C311.916 178.312 311.507 178.794 310.968 179.08C310.491 179.341 311.228 180.372 310.278 180.832C310.173 179.918 310.154 178.996 310.222 178.078C310.319 177.314 309.951 177.156 309.436 177.145C308.921 177.133 308.888 177.708 308.828 178.127C308.809 178.342 308.829 178.558 308.887 178.765C309.038 179.468 309.047 180.301 308.333 180.401C307.618 180.5 307.341 179.739 307.424 178.97C307.528 178.663 307.507 178.054 306.909 178.193C306.31 178.332 306.478 178.747 306.577 179.171C306.83 179.772 306.929 180.426 306.868 181.075C306.806 181.725 306.585 182.349 306.224 182.893C305.957 179.661 304.983 176.987 305.068 174.249C304.108 175.551 304.013 176.024 304.181 178.685C304.204 178.953 304.289 179.226 304.307 179.509C304.325 179.792 304.329 180.639 303.737 180.667C303.144 180.694 303.197 180.012 303.204 179.607C303.218 178.896 303.45 178.258 302.295 178.176C301.567 178.125 301.752 177.195 301.615 176.644C301.321 175.405 301.844 174.052 301.099 172.855L301.042 172.592L300.905 172.757L301.138 172.836C300.419 174.481 301.103 176.193 300.845 177.864C300.751 178.141 301.039 178.581 300.563 178.696C300.495 178.708 300.425 178.705 300.359 178.687C300.292 178.669 300.23 178.637 300.178 178.592C300.125 178.548 300.082 178.493 300.053 178.431C300.023 178.368 300.008 178.3 300.007 178.231C300.035 178.031 300.013 177.827 299.942 177.639C299.871 177.45 299.754 177.282 299.602 177.151C299.449 177.02 299.266 176.93 299.069 176.888C298.872 176.847 298.668 176.856 298.475 176.915C297.795 177.01 298.42 177.987 297.705 178.281C296.885 177.352 297.421 176.199 297.374 175.142C297.327 174.084 297.081 172.992 295.797 172.573L295.789 175.37C294.914 174.797 295.02 174.1 294.99 173.472C294.622 167.813 294.594 162.058 293.161 156.576C292.121 152.049 290.608 147.647 288.647 143.441C286.271 138.73 283.935 134 281.218 129.532C278.302 124.569 274.226 120.395 269.34 117.369C267.599 116.291 266.014 114.892 263.757 114.713C263.373 114.697 261.852 114.881 262.715 113.481C262.535 113.358 262.342 113.254 262.139 113.172C259.787 112.554 257.85 110.856 255.39 110.511C255.082 110.446 254.807 110.272 254.616 110.021C255.842 109.786 257.095 109.728 258.337 109.85C256.692 108.918 254.716 108.769 253.233 107.502C254.476 107.419 254.3 105.308 256.366 105.715C255.709 105.312 254.956 105.091 254.185 105.074C254.007 105.101 253.826 105.092 253.652 105.047C253.479 105.002 253.316 104.921 253.174 104.811C253.033 104.701 252.915 104.562 252.829 104.405C252.742 104.247 252.689 104.073 252.672 103.894C252.531 103.114 252.562 102.88 253.313 103.151C254.636 103.599 256.07 103.433 257.652 104.36C257.334 101.616 254.803 102.532 253.824 101.306C254.433 101.04 255.451 101.287 255.584 100.274C255.708 99.909 256.222 99.9694 256.62 100.039C258.158 100.283 259.782 100.704 261.349 101.104C263.138 101.564 265.037 101.507 266.884 102.084C270.595 103.319 274.117 105.06 277.353 107.258C280.864 109.37 284.135 111.859 287.108 114.681C288.915 116.507 290.616 118.437 292.202 120.459C294.019 122.703 296.085 124.786 297.712 127.209C299.053 129.166 300.267 131.208 301.346 133.323C303.963 138.07 306.298 142.97 308.337 147.996C308.504 148.46 308.972 148.944 308.387 149.429C308.262 149.386 308.15 149.312 308.061 149.213C307.973 149.115 307.91 148.996 307.88 148.867C306.836 146.446 305.758 144.03 304.675 141.629C304.539 141.224 304.325 140.85 304.044 140.529C303.764 140.207 303.423 139.945 303.04 139.756L308.477 152.991C309.167 151.24 307.706 150.338 308.296 149.17Z" fill="#F48DA0"/>
</g>
</svg>
