<svg width="403" height="386" viewBox="0 0 403 386" fill="none" xmlns="http://www.w3.org/2000/svg">
<path d="M314.376 66.5546C311.708 65.4488 309.046 66.6514 306.603 67.9034C303.593 69.4315 300.571 70.9107 297.646 72.5737C294.722 74.2368 292.242 75.55 289.41 76.8676C289.278 76.9177 289.167 77.0084 289.091 77.1265C289.015 77.2447 288.978 77.384 288.987 77.5239V77.5239L254.81 95.0361L209.824 118.116L189.658 128.547C187.775 128.432 186.475 129.838 184.912 130.517C182.359 131.728 179.869 133.069 177.451 134.535L177.32 134.38L177.274 134.745L163.804 141.692C161.64 142.325 159.581 143.271 157.691 144.501C152.788 146.843 147.952 149.335 143.145 151.861C141.74 152.584 140.39 153.409 138.998 153.973C138.827 154.065 138.679 154.195 138.566 154.353C138.453 154.511 138.378 154.693 138.346 154.884C137.848 155.102 137.32 155.285 136.833 155.551L115.016 166.767L66.1669 191.806L45.797 202.173C43.9881 202.793 42.2203 203.528 40.504 204.373C36.4977 205.808 32.5696 207.454 28.7364 209.304C27.7537 209.757 27.1602 210.945 25.9666 210.835L24.3457 212.039C23.8245 213.521 22.1925 213.875 21.2193 215.001C19.1787 217.701 18.0879 220.997 18.1171 224.376C18.1744 228.477 19.3953 232.474 21.6379 235.903C23.4985 239.446 25.2928 243.016 27.3747 246.401C28.607 248.661 30.0187 250.819 31.5962 252.853C31.9183 253.231 32.5176 253.55 32.2376 254.233L40.7016 265.697C41.518 265.713 41.679 266.495 42.0251 266.971C45.6131 271.849 49.8414 276.223 54.5968 279.974C60.7166 284.913 67.2586 289.307 74.1482 293.104C80.1858 296.34 86.4861 299.062 92.9828 301.242C98.9703 303.312 105.071 305.04 111.256 306.42C116.103 307.529 121.005 308.388 125.942 308.992C130.137 309.448 134.344 309.568 138.511 309.781C142.678 309.994 147.874 309.983 152.514 309.704C161.306 309.236 170.04 308.492 178.781 307.267C188.674 305.885 198.411 303.542 207.855 300.272C214.027 298.177 220.025 295.601 225.796 292.568C230.001 290.347 234.178 288.061 238.23 285.556C241.283 283.695 244.239 281.649 247.306 279.805C251.908 276.913 256.344 273.765 260.594 270.376C264.53 267.317 268.322 264.054 271.98 260.669C275.121 257.725 278.264 254.749 281.315 251.733C284.366 248.717 287.691 245.082 290.731 241.601C295.587 236.165 300.12 230.449 304.307 224.484C309.16 217.229 313.298 209.521 316.661 201.469C319.706 194.187 322.359 186.748 324.612 179.185C326.681 172.087 328.067 164.81 328.75 157.453C329.992 144.959 330.364 132.396 329.863 119.856C329.658 111.078 328.765 102.332 327.194 93.6978C326 87.4816 324.935 81.2435 323.137 75.1566C322.473 73.1249 321.332 71.2835 319.807 69.7867C318.283 68.29 316.42 67.1816 314.376 66.5546V66.5546ZM297.755 163.416C297.728 163.477 297.719 163.544 297.728 163.61C297.737 163.675 297.763 163.737 297.805 163.789C297.763 163.737 297.737 163.675 297.728 163.61C297.719 163.544 297.728 163.477 297.755 163.416V163.416ZM298.047 163.968C297.968 163.999 297.901 164.056 297.858 164.13C297.901 164.056 297.968 163.999 298.047 163.968V163.968ZM298.804 132.339C298.789 132.278 298.76 132.221 298.72 132.174C298.679 132.126 298.628 132.088 298.57 132.064V132.064C298.652 132.125 298.708 132.216 298.726 132.316L298.804 132.339Z" fill="white"/>
<g style="mix-blend-mode:multiply">
<path d="M18.1966 213.721L19.8665 212.505C21.1609 212.558 21.8086 211.294 22.7396 210.886C26.7684 209.052 30.7825 207.202 34.9543 205.78C36.7363 204.901 38.5762 204.145 40.4609 203.517C39.0225 205.04 39.9679 206.428 40.5869 207.887C41.0362 207.086 41.5812 206.343 42.2098 205.674C42.8988 205.086 44.0494 204.342 44.7227 205.132C45.396 205.922 44.1782 206.308 43.5926 206.807C43.2701 207.046 43.0029 207.352 42.8093 207.703C42.6157 208.054 42.5002 208.443 42.4708 208.843C42.4414 209.242 42.4986 209.643 42.6388 210.018C42.779 210.393 42.9987 210.733 43.2829 211.015C43.6488 211.444 44.1612 212.045 43.2241 212.725C42.2871 213.405 42.5747 213.813 42.8752 214.653C44.2896 218.755 46.5394 222.441 48.2535 226.405C49.0545 228.219 50.0248 229.953 51.1516 231.585C54.6156 236.235 58.4112 240.629 62.5089 244.733C65.8601 248.28 69.4233 251.588 73.0381 254.851C75.4121 257.008 77.8353 259.153 80.3324 261.175C83.2817 263.553 86.3395 265.779 89.3946 268.037C89.5996 268.278 90.1851 268.965 90.5546 267.968C90.9242 266.971 91.3894 265.981 91.7908 264.987C94.0193 259.262 96.2014 253.518 98.4911 247.83C101.375 240.746 104.318 233.731 107.246 226.699C110.174 219.666 113.238 212.34 116.164 205.131C120.066 195.578 123.861 185.969 127.731 176.413C130.343 169.917 133.08 163.463 135.614 156.944C135.936 156.136 136.763 155.431 136.458 154.446C136.495 154.248 136.576 154.062 136.695 153.899C136.813 153.736 136.967 153.602 137.143 153.506C138.635 152.832 140.093 152.085 141.51 151.266C146.501 148.642 151.535 146.07 156.624 143.63C158.594 142.324 160.751 141.325 163.021 140.667C163.513 141.245 163.94 141.875 164.295 142.546C166.952 148.523 169.808 154.42 172.214 160.523C175.744 169.374 179.085 178.178 182.239 187.111C185.241 195.552 188.012 204.071 190.641 212.563C194.5 224.87 197.818 237.311 201.332 249.703C202.417 253.522 203.603 257.285 204.704 261.09C204.977 262.073 205.199 262.299 206.324 261.873C210.511 260.338 214.614 258.583 218.615 256.614C225.1 253.369 231.667 250.291 238.083 246.897C244.499 243.503 250.438 239.863 256.354 235.917C260.183 233.475 263.806 230.724 267.187 227.691C270.457 224.591 273.545 221.306 276.435 217.85C276.9 217.453 276.968 217.01 276.267 216.362C272.909 213.295 269.402 210.088 265.968 206.967C261.162 202.585 256.249 198.322 251.336 194.06C244.448 188.072 237.247 182.173 230.088 176.357C224.554 171.853 218.897 167.485 213.274 163.087C208.345 159.224 203.384 155.358 198.386 151.554C195.607 149.446 192.942 147.122 190.018 145.227C185.185 141.849 180.861 137.798 177.175 133.197C179.743 131.778 182.231 130.161 184.924 128.993C186.549 128.318 187.887 126.852 189.851 126.957C191.727 128.932 193.822 130.687 196.095 132.189C203.229 137.731 210.576 143.001 217.71 148.542C224.061 153.446 230.23 158.624 236.495 163.601C245.077 170.458 253.518 177.464 261.747 184.71C269.168 191.252 276.466 197.929 283.722 204.522C284.812 205.521 285.261 205.315 285.953 204.103C291.313 194.946 295.045 184.932 296.982 174.51C297.968 168.688 298.63 162.905 299.344 157.078C300.051 150.546 300.38 144.128 300.603 137.622C300.716 127.6 300.315 117.58 299.402 107.603C299.159 99.3737 297.989 91.2011 295.914 83.2395C295.177 80.0476 294.199 76.917 292.987 73.8747C292.978 73.7304 293.014 73.5868 293.091 73.4636C293.167 73.3404 293.279 73.2436 293.412 73.1865C296.325 71.8591 299.115 70.2818 302.007 68.8245C304.899 67.3672 308.228 65.6556 311.374 64.0418C313.917 62.7336 316.68 61.4747 319.473 62.6224C321.579 63.2734 323.498 64.419 325.068 65.9636C326.638 67.5083 327.815 69.4071 328.5 71.5016C330.229 77.8352 331.639 84.2524 332.726 90.7291C334.373 99.7213 335.317 108.83 335.547 117.974C336.078 130.994 335.689 144.038 334.381 157.008C333.689 164.651 332.253 172.21 330.094 179.579C327.764 187.425 325.007 195.14 321.837 202.688C318.296 211.036 313.942 219.018 308.839 226.518C304.497 232.724 299.79 238.667 294.743 244.316C291.597 247.917 288.36 251.447 284.977 254.805C281.594 258.164 278.468 261.125 275.292 264.099C271.508 267.651 267.561 271.045 263.458 274.187C259.046 277.713 254.434 280.982 249.645 283.976C246.491 285.894 243.417 288.01 240.246 289.943C236.042 292.548 231.697 294.917 227.34 297.238C221.38 300.388 215.185 303.071 208.812 305.265C199.009 308.663 188.905 311.111 178.638 312.575C169.573 313.839 160.501 314.605 151.356 315.077C146.51 315.324 141.638 315.296 136.765 315.092C132.401 314.928 128.018 314.81 123.71 314.362C118.581 313.736 113.489 312.841 108.456 311.681C102.048 310.279 95.7309 308.496 89.5382 306.341C82.7714 304.095 76.2099 301.277 69.9249 297.918C62.7447 293.958 55.9335 289.365 49.5719 284.195C44.6618 280.311 40.29 275.793 36.5706 270.758C36.1607 270.278 36.0515 269.451 35.1714 269.431L26.3905 257.526C26.6877 256.827 26.0591 256.474 25.737 256.096C24.0993 253.983 22.6354 251.741 21.3597 249.391C19.1925 245.872 17.313 242.167 15.3818 238.506C13.4506 234.845 11.4592 230.939 11.7379 226.52C11.715 223.008 12.8497 219.581 14.9668 216.771C15.9426 215.613 17.6039 215.293 18.1966 213.721ZM302.857 131.787L303.009 132.28C302.85 132.54 302.764 132.839 302.762 133.144C302.76 133.449 302.841 133.748 302.997 134.01C302.887 134.127 302.815 134.274 302.791 134.433C302.767 134.591 302.791 134.753 302.861 134.897C302.861 134.897 303.125 134.998 303.111 134.981C303.284 134.625 303.393 134.265 302.965 134.007C303.499 133.552 303.279 132.91 303.181 132.341L303.112 131.807L303.183 131.332C303.231 131.273 303.265 131.203 303.282 131.129C303.3 131.055 303.3 130.978 303.283 130.904C303.265 130.829 303.231 130.76 303.183 130.701C303.135 130.643 303.074 130.596 303.004 130.564L303.211 130.388L303.109 130.268L303.1 130.572L302.93 131.28L302.857 131.787ZM302.491 163.736L302.614 163.008C302.644 162.834 302.625 162.672 302.35 162.699L302.327 162.985C302.156 163.309 302.101 163.593 302.503 163.785C302.233 163.748 302.122 163.931 302.089 164.137C302.1 164.186 302.124 164.232 302.158 164.269C302.192 164.307 302.235 164.335 302.283 164.351C302.331 164.367 302.382 164.37 302.432 164.36C302.481 164.351 302.528 164.328 302.566 164.295C302.605 164.263 302.634 164.22 302.652 164.173C302.669 164.125 302.674 164.074 302.666 164.024C302.658 163.974 302.637 163.927 302.605 163.888C302.574 163.848 302.532 163.818 302.485 163.799L302.491 163.736ZM124.953 283.652C125.203 283.736 125.57 283.957 125.613 283.623C125.656 283.29 125.214 283.4 124.994 283.351L123.996 283.401C123.498 282.817 122.722 283.093 122.045 283.136L121.283 283.045C121.323 283.545 121.649 283.474 122.002 283.47L123.962 283.815C124.125 283.886 124.305 283.908 124.481 283.879C124.657 283.85 124.821 283.771 124.953 283.652V283.652ZM234.412 258.536C234.787 258.49 235.141 258.335 235.429 258.089C235.717 257.844 235.926 257.519 236.031 257.156L234.308 258.624C233.464 258.366 232.797 258.875 232.175 259.227C227.614 261.692 222.9 263.873 218.159 265.987C215.032 267.517 211.828 268.883 208.56 270.078C208.164 270.208 207.516 270.494 207.793 271.028C208.07 271.563 208.55 271.184 208.95 270.99C210.184 270.413 211.432 269.854 212.694 269.311C220.135 266.151 227.378 262.541 234.382 258.502L234.412 258.536ZM130.479 291.424L130.823 291.131L130.504 291.106C128.319 290.775 126.128 290.508 123.93 290.128C121.733 289.748 119.47 289.187 117.228 288.755C114.926 288.513 112.611 288.408 110.296 288.438C112.561 289.699 115.081 290.438 117.671 290.601C121.886 291.345 126.172 291.609 130.449 291.39L130.479 291.424ZM291.91 200.833C294.136 198.324 295.882 195.429 297.061 192.291C299.573 185.085 301.183 177.598 301.853 170.001C301.915 169.445 302.221 168.828 301.753 168.278C301.564 168.37 301.404 168.513 301.293 168.692C301.182 168.871 301.124 169.077 301.126 169.287C300.111 175.074 298.248 180.635 296.707 186.189C295.391 191.135 293.608 195.917 292.028 200.762L291.956 201.061L292.059 200.973L291.91 200.833ZM152.803 151.186L151.184 155.531C149.183 160.616 147.259 165.756 145.151 170.784C143.043 175.813 140.904 181.224 138.749 186.441C136.17 192.732 133.73 199.081 131.117 205.401C129.041 210.432 126.84 215.421 124.778 220.47C122.281 226.542 119.877 232.653 117.426 238.745C114.975 244.837 112.517 250.432 110.249 256.249C107.98 262.067 105.694 268.108 103.357 273.984C102.97 274.996 102.872 275.613 104.214 276.07C107.648 277.354 111.202 278.297 114.823 278.886C120.062 279.528 125.344 279.763 130.622 279.59C151.116 279.303 171.415 275.452 190.61 268.212C191.946 267.756 192.115 267.256 191.733 266.04C189.204 257.7 186.706 249.363 184.293 240.983C182.038 233.21 180.208 225.341 177.642 217.656C175.877 212.341 174.412 206.889 172.642 201.638C171.111 196.806 169.712 191.92 167.915 187.195C166.582 183.677 165.233 180.142 163.851 176.636C162.034 171.958 160.382 167.229 158.384 162.617C156.823 158.651 154.947 154.817 152.774 151.151L152.803 151.186ZM141.122 280.987C141.734 281.351 142.458 281.482 143.161 281.355C152.237 280.74 161.265 279.523 170.183 277.71C177.527 276.295 184.711 274.144 191.627 271.289C192.293 270.988 193.139 270.83 192.792 269.97C192.445 269.109 191.558 269.777 191.047 269.945C185.827 271.638 180.729 273.612 175.375 274.973C165.816 277.405 156.105 279.185 146.308 280.302C144.562 280.358 142.824 280.588 141.122 280.987V280.987ZM276.36 223.31C273.623 225.228 271.296 227.627 268.635 229.599C264.04 233.071 259.677 236.85 254.892 240.099C252.005 242.086 249.218 244.224 246.372 246.294C249.247 244.869 252.024 243.255 254.685 241.461C260.636 237.278 266.529 233.025 272.149 228.383C273.889 226.991 275.328 225.26 276.378 223.295L276.36 223.31ZM224.577 256.246L224.387 256.022L216.826 259.503C213.411 261.08 210.062 262.838 206.508 264.148C206.194 264.268 205.789 264.316 205.973 264.811C206.158 265.307 206.44 265.184 206.823 265.006C207.206 264.827 207.582 264.745 207.948 264.581C211.375 263.053 214.889 261.628 218.216 259.949C220.379 258.787 222.444 257.442 224.577 256.246ZM262.15 264.244C266.284 261.104 271.383 259.13 274.862 254.978L262.15 264.244ZM231.145 252.96C232.024 252.211 233.424 252.144 234.095 251.186C233.087 251.749 231.817 251.794 231.145 252.96ZM230.426 253.128C230.114 253.172 229.815 253.282 229.547 253.448C229.28 253.615 229.05 253.836 228.872 254.097C229.485 254.048 229.806 253.657 230.443 253.113L230.426 253.128ZM126.722 283.982L126.826 283.686C126.721 283.654 126.609 283.657 126.505 283.693C126.505 283.693 126.402 283.781 126.423 283.911L126.722 283.982ZM302.214 165.365C302.212 165.188 302.257 165.032 302.218 164.916C302.18 164.801 302.086 164.762 302.063 165.049C302.012 165.146 301.992 165.256 302.005 165.365C302.005 165.365 302.141 165.279 302.214 165.365Z" fill="#166938"/>
</g>
<g style="mix-blend-mode:multiply">
<path d="M190.251 127.357C197.215 123.733 204.189 120.121 211.172 116.52L257.95 92.5056L293.431 74.3259C294.643 77.3681 295.622 80.4987 296.358 83.6907C298.433 91.6523 299.603 99.8249 299.847 108.054C300.76 118.032 301.161 128.051 301.048 138.073C300.876 144.535 300.62 151.039 299.788 157.53C299.074 163.356 298.378 169.169 297.426 174.961C295.489 185.384 291.758 195.397 286.397 204.554C285.72 205.784 285.256 205.972 284.167 204.973C276.866 198.328 269.551 191.667 262.192 185.162C253.962 177.915 245.521 170.909 236.954 164.069C230.677 159.043 224.537 153.9 218.154 148.994C211.021 143.452 203.673 138.182 196.539 132.64C194.246 131.128 192.136 129.355 190.251 127.357V127.357Z" fill="#CADF81"/>
</g>
<g style="mix-blend-mode:multiply">
<path d="M163.308 141.075L177.297 133.864L177.589 133.614C181.275 138.216 185.599 142.267 190.432 145.645C193.322 147.569 195.943 149.842 198.801 151.972C203.798 155.776 208.759 159.642 213.688 163.505C219.311 167.903 224.968 172.271 230.503 176.774C237.632 182.556 244.745 188.353 251.751 194.478C256.663 198.74 261.576 203.002 266.382 207.385C269.758 210.437 273.265 213.644 276.682 216.78C277.383 217.428 277.256 217.803 276.864 218.285C273.96 221.728 270.868 225.007 267.601 228.109C264.228 231.151 260.604 233.903 256.768 236.335C250.852 240.281 244.798 243.96 238.497 247.315C232.196 250.67 225.514 253.787 219.03 257.032C215.029 258.996 210.931 260.757 206.753 262.309C205.614 262.716 205.392 262.491 205.119 261.508C204.031 257.72 202.831 253.94 201.761 250.138C198.232 237.729 194.914 225.288 191.055 212.981C188.368 204.421 185.597 195.902 182.653 187.529C179.499 178.596 176.114 169.74 172.628 160.941C170.222 154.838 167.366 148.941 164.709 142.964C164.315 142.283 163.845 141.649 163.308 141.075Z" fill="#CADF81"/>
</g>
<g style="mix-blend-mode:multiply">
<path d="M153.028 151.587C155.195 155.258 157.065 159.097 158.62 163.068C160.619 167.68 162.271 172.409 164.087 177.087C165.47 180.593 166.818 184.128 168.166 187.663C169.948 192.371 171.347 197.256 172.879 202.088C174.493 207.472 176.079 212.821 177.878 218.106C180.445 225.792 182.255 233.707 184.529 241.434C186.943 249.813 189.44 258.151 191.969 266.491C192.334 267.721 192.18 268.238 190.847 268.663C171.658 275.867 151.373 279.686 130.898 279.948C125.62 280.121 120.338 279.885 115.099 279.244C111.478 278.654 107.924 277.711 104.49 276.428C103.148 275.971 103.246 275.353 103.633 274.342C105.926 268.414 108.141 262.464 110.525 256.607C112.908 250.75 115.405 244.886 117.685 239.118C119.965 233.349 122.557 226.9 125.054 220.827C127.116 215.779 129.317 210.79 131.393 205.758C133.972 199.468 136.411 193.119 139.025 186.799C141.18 181.582 143.24 176.357 145.427 171.142C147.614 165.927 149.442 160.989 151.46 155.889L153.028 151.587Z" fill="#CADF81"/>
</g>
<g style="mix-blend-mode:multiply">
<path d="M40.6786 203.983C47.7209 200.382 54.7925 196.814 61.8201 193.195L112.527 167.196L135.266 155.491C135.767 155.241 136.297 155.026 136.845 154.797C137.066 155.824 136.24 156.529 135.986 157.278C133.453 163.796 130.731 170.268 128.104 176.747C124.317 186.261 120.439 195.912 116.552 205.482C113.697 212.6 110.591 219.843 107.619 227.032C104.646 234.221 101.763 241.097 98.8786 248.181C96.5742 253.852 94.3921 259.596 92.1635 265.32C91.7621 266.315 91.297 267.304 90.9275 268.301C90.5579 269.298 90.024 268.567 89.7674 268.371C86.7268 266.13 83.6544 263.887 80.7052 261.509C78.208 259.487 75.785 257.342 73.411 255.185C69.7961 251.922 66.233 248.614 62.8817 245.067C58.8109 240.937 55.0441 236.518 51.6105 231.845C50.4838 230.214 49.5134 228.48 48.7124 226.666C46.9811 222.716 44.7485 219.015 43.3341 214.914C43.0336 214.073 43.0362 213.448 43.683 212.985C44.3298 212.523 44.0906 211.719 43.7418 211.275C43.4595 210.996 43.2413 210.658 43.102 210.286C42.9627 209.914 42.9057 209.516 42.9348 209.12C42.964 208.723 43.0786 208.337 43.271 207.988C43.4633 207.64 43.7286 207.336 44.0489 207.099C44.6518 206.585 45.8282 206.116 45.1815 205.393C44.5349 204.669 43.3206 205.408 42.6686 205.934C42.0442 206.6 41.5093 207.345 41.0777 208.15C40.2718 206.821 39.2748 205.477 40.6786 203.983Z" fill="#CADF81"/>
</g>
<g style="mix-blend-mode:multiply">
<path d="M141.376 281.424C143.094 281.039 144.846 280.826 146.606 280.79C156.402 279.673 166.114 277.893 175.673 275.462C181.009 274.115 186.125 272.126 191.344 270.434C191.87 270.282 192.69 269.465 193.09 270.458C193.49 271.451 192.605 271.494 191.925 271.777C185.034 274.601 177.878 276.728 170.567 278.124C161.651 279.953 152.622 281.171 143.544 281.769C142.803 281.936 142.027 281.813 141.376 281.424V281.424Z" fill="#CADF81"/>
</g>
<g style="mix-blend-mode:multiply">
<path d="M292.165 201.237C293.777 196.394 295.545 191.595 296.861 186.649C298.344 181.027 300.299 175.505 301.295 169.764C301.291 169.554 301.346 169.346 301.455 169.164C301.563 168.983 301.72 168.835 301.907 168.738C302.376 169.288 302.069 169.905 302.008 170.461C301.346 178.059 299.736 185.547 297.215 192.752C296.036 195.889 294.29 198.784 292.064 201.293L292.165 201.237Z" fill="#CADF81"/>
</g>
<g style="mix-blend-mode:multiply">
<path d="M276.631 223.732C275.565 225.677 274.135 227.399 272.419 228.805C266.785 233.43 260.892 237.683 254.941 241.866C252.286 243.669 249.508 245.284 246.628 246.699C249.474 244.629 252.261 242.491 255.162 240.521C259.933 237.255 264.31 233.494 268.891 230.004C271.566 228.049 273.894 225.65 276.631 223.732Z" fill="#CADF81"/>
</g>
<g style="mix-blend-mode:multiply">
<path d="M130.687 291.808C126.376 292.008 122.059 291.709 117.821 290.916C115.226 290.756 112.701 290.023 110.428 288.768C112.754 288.732 115.08 288.849 117.389 289.119C119.648 289.536 121.865 290.078 124.124 290.494C126.382 290.911 128.512 291.141 130.683 291.455C130.674 291.573 130.676 291.691 130.687 291.808V291.808Z" fill="#CADF81"/>
</g>
<g style="mix-blend-mode:multiply">
<path d="M234.65 258.956C227.656 262.958 220.432 266.542 213.016 269.689L209.272 271.369C208.872 271.562 208.363 271.907 208.115 271.406C207.867 270.906 208.486 270.586 208.881 270.456C212.15 269.261 215.354 267.895 218.481 266.365C223.222 264.251 227.936 262.07 232.497 259.605C233.133 259.27 233.785 258.744 234.63 259.002L234.65 258.956Z" fill="#CADF81"/>
</g>
<g style="mix-blend-mode:multiply">
<path d="M224.816 256.665C222.697 257.878 220.632 259.223 218.428 260.301C215.055 261.962 211.587 263.406 208.16 264.934C207.867 265.183 207.386 265.178 207.035 265.359C206.684 265.54 206.345 265.561 206.185 265.164C206.025 264.767 206.406 264.62 206.72 264.501C210.288 263.208 213.696 261.519 217.037 259.856L224.599 256.375L224.816 256.665Z" fill="#CADF81"/>
</g>
<g style="mix-blend-mode:multiply">
<path d="M262.389 264.663L275.102 255.397C271.622 259.55 266.524 261.524 262.389 264.663Z" fill="#CADF81"/>
</g>
<g style="mix-blend-mode:multiply">
<path d="M231.467 253.336C232.121 252.185 233.409 252.125 234.416 251.562C233.657 252.625 232.294 252.631 231.467 253.336Z" fill="#CADF81"/>
</g>
<g style="mix-blend-mode:multiply">
<path d="M122.298 283.572C122.975 283.529 123.665 283.326 124.248 283.837L124.215 284.251L122.269 283.923C122.287 283.807 122.296 283.69 122.298 283.572V283.572Z" fill="#CADF81"/>
</g>
<g style="mix-blend-mode:multiply">
<path d="M234.63 259.002L236.352 257.533C236.248 257.896 236.038 258.221 235.75 258.467C235.462 258.712 235.109 258.868 234.733 258.913L234.63 259.002Z" fill="#CADF81"/>
</g>
<g style="mix-blend-mode:multiply">
<path d="M230.697 253.549C230.059 254.093 229.68 254.416 229.143 254.518C229.32 254.258 229.55 254.037 229.818 253.87C230.085 253.703 230.385 253.594 230.697 253.549Z" fill="#CADF81"/>
</g>
<g style="mix-blend-mode:multiply">
<path d="M125.207 284.088C125.075 284.207 124.911 284.286 124.735 284.315C124.559 284.344 124.379 284.322 124.216 284.251L124.249 283.837L125.247 283.787L125.207 284.088Z" fill="#CADF81"/>
</g>
<g style="mix-blend-mode:multiply">
<path d="M122.27 283.925C121.954 283.868 121.576 283.983 121.536 283.483L122.299 283.574C122.297 283.692 122.288 283.809 122.27 283.925Z" fill="#CADF81"/>
</g>
<g style="mix-blend-mode:multiply">
<path d="M125.246 283.787C125.467 283.836 125.928 283.68 125.866 284.06C125.803 284.44 125.456 284.172 125.206 284.088L125.246 283.787Z" fill="#CADF81"/>
</g>
<g style="mix-blend-mode:multiply">
<path d="M127.044 284.361L126.745 284.29C126.745 284.29 126.778 284.084 126.827 284.072C126.876 284.06 127.035 284.072 127.148 284.065L127.044 284.361Z" fill="#CADF81"/>
</g>
<g style="mix-blend-mode:multiply">
<path d="M302.881 163.46L302.743 164.171C302.342 163.979 302.363 163.724 302.55 163.386L302.881 163.46Z" fill="#CADF81"/>
</g>
<g style="mix-blend-mode:multiply">
<path d="M302.744 164.171C302.795 164.265 302.808 164.375 302.778 164.477C302.749 164.58 302.68 164.667 302.588 164.72C302.588 164.72 302.456 164.566 302.427 164.531C302.397 164.497 302.556 164.125 302.84 164.179L302.744 164.171Z" fill="#CADF81"/>
</g>
<g style="mix-blend-mode:multiply">
<path d="M302.535 165.743C302.462 165.657 302.251 165.689 302.253 165.657C302.256 165.625 302.286 165.451 302.311 165.341C302.336 165.231 302.501 165.179 302.539 165.295C302.578 165.41 302.548 165.584 302.535 165.743Z" fill="#CADF81"/>
</g>
<g style="mix-blend-mode:multiply">
<path d="M302.597 163.408L302.637 163.106C302.877 163.109 302.827 163.33 302.915 163.433L302.597 163.408Z" fill="#CADF81"/>
</g>
<g style="mix-blend-mode:multiply">
<path d="M130.727 291.507L131.045 291.532L130.701 291.826C130.702 291.719 130.71 291.613 130.727 291.507V291.507Z" fill="#CADF81"/>
</g>
<g style="mix-blend-mode:multiply">
<path d="M292.135 201.234L292.296 201.423L292.192 201.511L292.247 201.227L292.135 201.234Z" fill="#CADF81"/>
</g>
<g style="mix-blend-mode:multiply">
<path d="M177.593 133.581L177.231 133.889L177.262 133.507L177.593 133.581Z" fill="#00BB71"/>
</g>
<path d="M162.252 201.452C161.04 202.297 159.648 202.849 158.188 203.065C156.727 203.28 155.237 203.153 153.836 202.694C152.434 202.235 151.16 201.456 150.114 200.419C149.068 199.382 148.278 198.115 147.807 196.718C146.99 193.541 146.828 190.229 147.331 186.984C147.84 182.351 148.652 177.756 149.763 173.228C150.213 170.651 152.426 170.247 154.517 169.769C155.374 169.549 156.278 169.61 157.097 169.943C157.915 170.275 158.605 170.861 159.065 171.614C160.429 173.785 161.574 176.086 162.483 178.485C164.698 182.95 165.935 187.839 166.112 192.825C166.219 194.466 165.923 196.11 165.251 197.614C164.578 199.117 163.549 200.435 162.252 201.452V201.452Z" fill="white"/>
<path d="M190.024 178.519C187.301 174.051 185.44 169.111 184.538 163.953C184.257 162.99 184.285 161.962 184.618 161.014C184.951 160.065 185.572 159.244 186.394 158.664C188.142 157.471 189.945 157.98 191.731 158.889C196.984 161.398 201.878 164.593 206.286 168.392C207.899 169.604 209.124 171.259 209.812 173.157C210.501 175.054 210.623 177.112 210.163 179.081C208.637 185.245 202.147 187.576 196.028 184.341C193.557 182.951 191.489 180.946 190.024 178.519V178.519Z" fill="white"/>
</svg>
