<svg xmlns="http://www.w3.org/2000/svg" fill="none" viewBox="0 0 390 67" height="67" width="390">
<g clip-path="url(#clip0_16_51)">
<path fill="#F9423A" d="M84.5093 0.445075L107.041 37.6648V65.7603H129.573V37.6648L151.494 0.445075H125.067L119.058 17.525C119.058 17.525 118.725 19.3053 117.946 17.525L110.602 0.445075H84.5093ZM173.581 0.445075V65.7603H215.752V45.2867H195.723V0.445075H173.581ZM267.826 66.4836C248.298 66.4836 232.442 51.6847 232.442 33.4365C232.442 15.1883 248.298 0.38944 267.826 0.38944C287.354 0.38944 303.21 15.1883 303.21 33.4365C303.21 51.6847 287.354 66.4836 267.826 66.4836ZM255.531 33.4365C255.531 40.7247 261.039 46.5663 267.826 46.5663C274.613 46.5663 280.121 40.669 280.121 33.4365C280.121 26.1484 274.613 20.3067 267.826 20.3067C261.039 20.3067 255.531 26.204 255.531 33.4365ZM21.8088 32.4351L41.5592 66.0385H63.4793V0.723249H41.5592V34.5492L21.8088 0.723249H0V66.0385H21.8088V32.4351ZM348.33 31.9344L368.08 65.5378H390V0.222535H368.08V34.0485L348.33 0.166901H326.521V65.4822H348.33V31.9344Z"></path>
</g>
<defs>
<clipPath id="clip0_16_51">
<rect fill="white" height="66.7618" width="390"></rect>
</clipPath>
</defs>
</svg>
