<svg width="342" height="402" viewBox="0 0 342 402" fill="none" xmlns="http://www.w3.org/2000/svg">
<path d="M331.796 309.165C330.274 304.436 327.513 300.201 323.799 296.901C323.714 296.585 323.572 296.288 323.379 296.024C319.758 292.719 316.319 289.161 312.434 286.198C303.104 279.091 294.778 270.951 286.801 262.414C281.098 256.29 275.08 250.549 268.311 245.625C264.325 242.705 259.936 240.277 255.985 237.327C246.641 230.462 237.778 222.965 229.459 214.89C222.733 208.284 215.397 202.385 208.156 196.394C194.137 184.8 179.412 174.094 164.819 163.241C156.617 157.181 148.934 150.448 141.851 143.113C135.929 136.934 130.284 130.509 124.28 124.425C117.293 117.332 110.085 110.46 102.924 103.542C99.2568 99.9977 95.3882 96.6675 91.5765 93.2699C87.131 89.2888 82.1875 85.9216 77.8707 81.7827C77.0883 81.0324 76.394 79.807 74.9748 79.8963C71.8599 76.8723 69.0105 73.5704 65.3503 71.1427C61.1215 68.3408 56.6178 68.3668 52.4124 71.2259C48.8962 73.6108 46.7102 76.9996 45.1016 80.8177C43.1433 85.4632 42.3199 90.4208 41.1928 95.2976C39.3661 103.228 37.3144 111.101 36.0493 119.163C34.7054 127.726 34.7714 136.349 34.3621 144.948C34.2537 148.423 34.5009 151.899 35.0998 155.323C37.5092 170.015 40.8705 184.535 45.1626 198.79C48.4191 209.833 51.6492 220.803 57.354 230.889C64.9554 244.173 73.4441 256.93 82.7625 269.072C92.668 282.122 102.668 295.079 114.073 306.891C124.415 317.602 136.743 325.078 150.689 329.969C169.188 336.464 188.515 338.571 207.891 340.27C218.507 341.201 229.15 340.87 239.779 340.55C245.45 340.382 251.12 340.103 256.772 339.423C269.775 337.865 282.568 335.207 295.286 332.139C301.957 330.532 308.861 329.946 315.389 327.68C320.266 325.968 325.12 324.193 328.799 320.344C331.812 317.159 333.272 313.588 331.796 309.165Z" fill="white"/>
<g style="mix-blend-mode:multiply">
<g style="mix-blend-mode:multiply">
<path d="M71.5562 73.5855C72.9955 73.4714 73.7254 74.7304 74.5276 75.5025C78.9667 79.7365 84.0366 83.1622 88.6095 87.2363C92.5154 90.716 96.4918 94.1174 100.27 97.7428C107.643 104.823 115.057 111.858 122.25 119.12C128.425 125.351 134.253 131.942 140.349 138.261C147.63 145.759 155.526 152.636 163.954 158.82C178.923 169.873 194.019 180.763 208.412 192.598C215.851 198.716 223.36 204.737 230.309 211.489C238.852 219.743 247.955 227.397 257.555 234.395C261.613 237.382 266.079 239.847 270.188 242.815C277.134 247.842 283.308 253.736 289.18 259.985C297.398 268.736 305.976 277.069 315.547 284.31C319.535 287.328 323.075 290.971 326.81 294.351C327.013 294.622 327.163 294.928 327.252 295.255C325.259 295.927 323.364 296.849 321.304 297.337C305.878 300.972 290.218 302.328 274.448 302.243C258.4 302.144 242.343 302.008 226.352 300.221C219.433 299.449 212.559 298.497 205.725 297.192C192.345 294.641 179.887 289.082 167.146 284.537C156.558 280.74 146.85 275.082 137.311 269.041C126.438 262.162 116.665 254.086 109.208 243.29C100.67 230.934 92.3585 218.43 85.7741 204.832C77.7373 188.323 70.7477 171.442 65.9214 153.575C62.6888 141.58 60.483 129.523 60.9481 117.07C61.1128 112.567 61.575 108.08 62.3317 103.638C63.4197 96.8719 65.072 90.2082 67.2713 83.7167C68.5071 80.2334 70.4477 77.0978 71.5562 73.5855Z" fill="#F38C9F"/>
</g>
<g style="mix-blend-mode:multiply">
<path d="M71.5567 73.5861C70.4481 77.0983 68.5076 80.234 67.2923 83.7097C65.093 90.2012 63.4407 96.8649 62.3527 103.631C61.5851 108.076 61.1126 112.567 60.9383 117.074C60.4731 129.528 62.6686 141.588 65.9116 153.58C70.7097 171.433 77.7069 188.335 85.7316 204.842C92.3416 218.431 100.653 230.935 109.165 243.301C116.623 254.096 126.4 262.17 137.268 269.052C146.865 275.059 156.531 280.744 167.145 284.532C179.9 289.102 192.353 294.662 205.723 297.188C212.557 298.492 219.432 299.444 226.351 300.217C242.342 302.003 258.398 302.14 274.447 302.238C290.225 302.331 305.877 300.967 321.303 297.332C323.363 296.845 325.258 295.923 327.251 295.25C331.107 298.65 333.987 303.017 335.592 307.9C337.162 312.482 335.731 316.228 332.747 319.555C329.076 323.634 324.18 325.563 319.261 327.414C312.684 329.913 305.697 330.64 298.946 332.44C286.098 335.852 273.173 338.85 259.995 340.711C254.277 341.514 248.532 341.908 242.784 342.181C232.011 342.699 221.225 343.228 210.453 342.442C190.78 341.015 171.153 339.158 152.29 332.72C138.077 327.863 125.449 320.299 114.799 309.322C103.046 297.212 92.6977 283.894 82.4784 270.481C72.8304 257.971 64.0265 244.833 56.1252 231.153C50.1806 220.747 46.7287 209.362 43.2528 197.929C38.6675 183.142 35.0265 168.078 32.3521 152.829C31.6908 149.272 31.385 145.658 31.4394 142.04C31.7182 133.069 31.5101 124.09 32.7388 115.15C33.8913 106.733 35.8439 98.4941 37.5817 90.1944C38.6297 85.1019 39.3946 79.921 41.3097 75.0466C42.8782 71.0393 45.0398 67.473 48.5669 64.9267C52.7928 61.8853 57.3567 61.7848 61.689 64.6303C65.4129 67.1046 68.3481 70.4974 71.5567 73.5861Z" fill="#FEAC5F"/>
</g>
</g>
<path d="M101.909 120.129C100.043 119.584 98.3117 118.655 96.8266 117.401C95.0488 116.02 92.9765 115.107 91.4118 113.321C89.5404 111.176 86.3673 110.696 84.207 108.796C82.6443 107.429 80.444 106.931 79.2258 105.088C79.0047 104.787 78.694 104.565 78.3384 104.452C77.9828 104.34 77.6006 104.343 77.2468 104.461C76.6425 104.642 76.9283 105.406 76.8931 105.914C76.4748 112.389 77.8183 118.708 78.6714 125.073C79.4341 130.842 80.2814 136.603 81.089 142.367C81.8448 147.608 83.0465 152.761 84.2655 157.913C84.4995 158.917 85.0676 159.035 85.9725 159.181C93.1674 160.324 100.392 161.118 107.661 161.716C111.091 161.99 114.539 161.868 117.94 162.316C123.676 163.074 129.495 162.612 135.227 163.645C137.622 164.006 140.049 164.104 142.466 163.939C147.351 163.797 152.239 164.089 157.072 164.811C160.465 165.286 163.972 164.815 167.354 165.993C168.653 166.449 170.529 165.65 172.159 165.787C175.293 166.048 177.365 168.312 179.559 170.065C181.495 171.622 183.561 173.026 185.476 174.591C186.365 175.313 187.091 175.816 185.445 176.303C184.726 176.521 185.064 177.061 184.891 177.433C183.946 179.452 183.32 181.703 180.939 182.652C180.821 182.696 180.665 182.811 180.649 182.91C179.911 187.26 176.32 189.789 173.922 193.045C172.424 195.081 170.686 196.942 169.099 198.975C166.752 202.02 164.05 204.794 161.591 207.759C156.99 213.292 152.29 218.745 148.152 224.65C145.683 228.172 142.811 231.392 140.657 235.154C139.31 237.507 138.359 240.018 137.196 242.443C137.005 242.845 136.657 243.375 137.222 243.913C140.333 246.88 143.259 250.055 146.536 252.821C151.019 256.602 156.138 259.608 160.644 263.322C167.325 268.82 174.799 272.966 182.288 277.137C184.323 278.266 186.253 279.65 188.587 280.274C190.63 280.819 191.859 280.164 192.377 278.063C192.521 277.406 192.779 276.779 193.138 276.211C195.184 273.241 196.273 269.716 196.257 266.111C196.258 263.57 197.251 261.015 196.184 258.487C197.644 256.967 196.212 255.178 196.661 253.429C197.699 249.5 197.148 245.215 196.818 241.31C196.404 236.555 197.016 231.914 196.778 227.194C196.406 219.709 196.892 212.177 197.09 204.67C197.176 201.724 196.826 198.607 197.415 195.81C198.222 191.936 197.03 188.067 198.137 184.072C199.617 185.644 201.415 186.651 202.993 187.932C203.816 188.585 203.878 189.518 203.883 190.519C203.879 197.169 203.706 203.822 203.965 210.457C204.347 220.293 204.319 230.139 204.199 239.955C204.221 245.308 203.884 250.656 203.189 255.965C202.837 258.424 203.577 261.014 203.884 263.535C204.671 270.034 206.827 276.291 210.209 281.896C210.852 282.965 211.597 284.09 211.445 285.474C211.357 286.363 212.013 286.688 212.687 286.808C215.93 287.367 219.185 287.991 222.492 288.311C227.465 288.818 232.395 289.62 237.368 290.063C241.946 290.476 246.415 291.645 251.047 291.713C253.528 291.753 256.004 292.225 258.483 292.528C258.886 292.578 259.386 292.78 259.64 292.424C259.895 292.069 259.5 291.724 259.294 291.386C258.284 289.804 257.513 288.082 257.006 286.276C256.671 285.283 256.137 284.368 255.438 283.588C253.363 281.237 252.311 278.418 251.17 275.562C250.598 274.128 249.466 272.726 248.512 271.38C247.165 269.47 246.009 267.433 245.062 265.297C243.003 260.604 240.292 256.249 238.06 251.643C235.829 247.036 233.313 242.592 231.424 237.872C230.663 235.972 229.622 234.262 228.797 232.426C227.856 230.335 226.503 228.413 225.735 226.271C223.836 220.965 220.946 216.105 219.002 210.805C217.605 206.994 215.244 203.547 213.715 199.744C213.162 198.362 212.526 197.01 211.782 195.313C213.421 195.925 214.884 196.932 216.04 198.244C218.884 201.228 222.292 203.526 225.388 206.243C227.551 208.136 228.923 210.301 228.915 213.206C228.908 213.405 228.962 213.602 229.068 213.771C229.175 213.94 229.33 214.072 229.513 214.152C229.762 214.265 229.982 214.435 230.153 214.649C230.325 214.862 230.443 215.113 230.5 215.381C231.248 219.36 233.896 222.48 235.374 226.144C238.305 233.437 242.533 240.114 246.067 247.128C247.336 249.651 248.342 252.266 249.585 254.782C250.377 256.385 251.208 257.968 251.934 259.596C253.546 263.165 255.191 266.728 256.666 270.353C257.863 273.3 260.317 275.331 261.929 277.962C264.614 282.344 268.078 286.143 271.337 290.087C272.993 292.09 274.972 293.351 277.907 293.452C291.419 293.916 304.245 291.112 316.625 285.96C317.687 285.518 318.185 285.97 318.912 286.537C323.96 290.594 328.71 295.007 333.126 299.743C333.535 300.176 334.017 300.582 334.483 300.947L334.474 301.352C332.618 302.651 330.352 303.26 328.571 304.735C329.936 305.912 330.825 304.759 331.874 304.2C332.44 303.899 333.222 303.344 333.656 304.129C334.034 304.812 333.188 305.081 332.697 305.378C328.802 307.686 324.882 309.922 320.774 311.854C315.917 314.046 310.908 315.883 305.786 317.35C299.093 319.374 292.074 319.902 285.334 321.78C279.863 323.303 274.127 323.722 268.493 323.877C262.315 324.119 256.128 323.927 249.978 323.302C243.753 322.595 237.476 322.491 231.238 321.731C225.385 321.005 219.569 320.807 213.859 319.405C209.559 318.348 205.077 318.005 200.664 317.45C192.747 316.561 184.931 314.941 177.314 312.611C167.777 309.582 159 305.063 150.529 299.884C145.485 296.798 140.448 293.733 135.815 289.972C131.068 286.108 125.828 282.838 121.241 278.757C117.278 275.234 113.642 271.329 109.568 267.946C106.819 265.668 104.92 262.746 102.626 260.149C101.455 258.831 100 257.837 98.9354 256.445C97.1378 254.103 95.3322 251.724 93.4647 249.478C88.3703 243.345 83.9964 236.745 79.6323 230.124C74.9324 222.985 71.1391 215.344 67.0524 207.858C62.8197 200.116 58.7766 192.287 55.0353 184.296C53.115 180.204 51.8733 175.864 50.6647 171.535C48.8751 165.065 48.3065 158.363 47.0437 151.787C46.3741 148.642 45.8869 145.461 45.5846 142.259C45.1488 136.301 43.5372 130.523 43.1758 124.56C42.9247 120.457 43.1413 116.357 43.001 112.254C42.8683 108.346 43.6591 104.397 44.767 100.628C46.8427 93.5682 47.7408 86.0951 51.7624 79.714C53.7576 76.5525 55.7059 73.3266 58.7005 70.8707C60.8344 69.1209 63.5264 68.559 65.7963 67.1322L66.2018 67.1409C69.0082 69.5498 71.684 72.1065 74.2179 74.8003C77.2286 77.8741 80.6987 80.4356 84.2911 83.2669C81.6304 83.8348 80.9631 85.7518 80.3434 87.8146C79.7238 89.8773 78.9001 91.7177 78.1941 93.6722C77.757 94.8813 77.5881 95.963 79.0203 96.7838C82.5859 98.8266 85.4188 101.861 88.9001 104.039C94.0312 107.25 99.1218 110.558 104.038 114.057C112.082 119.772 121.334 123.22 129.622 128.391C132.305 130.064 135.179 131.492 137.365 134.035C140.782 138.026 144.6 141.631 148.265 145.392C149.005 146.152 149.799 146.857 150.765 147.773C148.044 147.477 145.656 147.118 144.043 144.866C143.852 144.627 143.608 144.438 143.329 144.312C143.051 144.186 142.747 144.128 142.442 144.142C141.096 144.128 139.732 144.034 139.667 142.17C139.66 142.009 139.444 141.722 139.329 141.711C135.896 141.764 134.423 138.301 131.451 137.433C127.271 136.21 123.938 133.388 120.278 131.182C115.693 128.412 111.291 125.359 106.55 122.815C104.97 121.972 103.453 121.002 101.913 120.093C101.966 120.079 102.018 120.06 102.067 120.036C102.098 120.025 102.086 119.959 102.095 119.921L101.909 120.129ZM139.009 248.118L138.61 247.681C138.36 246.205 137.152 245.885 135.98 245.505C136.552 246.534 137.486 247.313 138.601 247.69L139.011 248.123C139.021 248.177 139.041 248.229 139.067 248.277C139.076 248.302 139.144 248.295 139.182 248.305L139.009 248.118ZM141.415 250.195C141.404 250.141 141.385 250.089 141.358 250.041C141.347 250.01 141.285 250.016 141.245 250.001L141.418 250.188L141.822 250.623C141.802 250.734 141.809 250.848 141.842 250.956C141.876 251.064 141.934 251.163 142.014 251.243C142.093 251.324 142.19 251.384 142.298 251.419C142.405 251.454 142.52 251.463 142.631 251.445C142.638 251.891 142.789 252.226 143.302 252.224C143.396 252.225 143.568 252.074 143.556 252.026C143.426 251.561 143.016 251.508 142.618 251.456C142.636 251.345 142.628 251.233 142.595 251.126C142.562 251.02 142.504 250.922 142.427 250.841C142.35 250.761 142.256 250.699 142.151 250.661C142.046 250.623 141.933 250.61 141.822 250.623L141.415 250.195ZM117.334 270.01L117.524 270.179L117.355 269.991L116.975 269.652L116.823 269.859L117.334 270.01ZM169.596 272.596C169.614 272.042 169.308 271.81 168.784 271.781C168.468 271.063 167.853 270.928 167.159 270.943C167.005 270.842 166.855 270.734 166.703 270.639C166.661 270.686 166.623 270.737 166.59 270.791L167.142 270.961C167.411 271.696 168.048 271.841 168.743 271.813C168.725 272.368 169.031 272.599 169.557 272.634C169.758 272.877 170.008 273.076 170.291 273.217C170.574 273.359 170.883 273.439 171.199 273.453C171.601 274.279 172.366 274.552 173.193 274.726C173.44 275.015 173.75 275.243 174.099 275.393C174.449 275.543 174.828 275.61 175.207 275.59C176.061 277.188 177.944 277.377 179.169 278.443C181.732 280.662 185.01 281.458 187.894 283.028C187.997 283.084 188.223 282.908 188.486 282.811C188.367 282.637 188.221 282.482 188.055 282.352C185.688 281.081 183.243 279.933 180.966 278.542C179.159 277.371 177.245 276.374 175.25 275.563C175.006 275.271 174.697 275.041 174.347 274.892C173.997 274.743 173.617 274.678 173.238 274.704C172.996 273.569 172.098 273.52 171.191 273.479C171.074 273.169 170.849 272.912 170.558 272.753C170.266 272.595 169.928 272.547 169.603 272.617L169.596 272.596ZM68.0236 201.395C68.0196 201.845 67.9674 202.307 68.4078 202.618C69.108 205.274 70.6512 207.622 71.8736 210.017C75.1847 216.518 78.9685 222.781 82.4165 229.225C87.108 238.075 93.4493 245.731 99.8532 253.335C103.073 257.153 106.888 260.433 110.139 264.258C111.731 266.133 113.913 267.536 116.168 269.424C116.121 269.01 115.99 268.61 115.782 268.25C115.575 267.889 115.295 267.574 114.961 267.326C113.374 265.781 111.898 264.126 110.38 262.544C106.259 258.257 102.086 254.066 98.5942 249.234C95.3367 244.724 91.668 240.54 88.6691 235.812C85.4081 230.657 81.5317 225.89 78.8161 220.378C76.7746 216.226 74.0479 212.448 72.0773 208.235C71.144 206.247 70.307 204.06 68.5012 202.554C68.4744 202.115 68.5471 201.646 68.0899 201.353C68.0454 200.962 68.0346 200.534 67.5282 200.394C67.4757 200.378 67.3265 200.543 67.3136 200.636C67.2435 201.192 67.5689 201.364 68.0236 201.395ZM51.9306 169.422L51.8718 167.957C51.4062 168.612 51.4311 169.046 51.9171 169.433C51.8475 170.594 51.905 171.721 52.6782 172.685C52.7004 173.556 52.4311 174.523 53.4772 175.404C53.3781 174.275 53.2819 173.425 52.6749 172.692C52.7455 171.558 52.4891 170.429 51.9363 169.437L51.9306 169.422ZM113.84 219.269C113.887 219.572 113.868 219.934 114.327 219.929C114.358 219.921 114.387 219.904 114.41 219.881C114.433 219.859 114.45 219.83 114.46 219.799C114.499 219.365 114.204 219.31 113.856 219.251C113.834 217.855 112.992 217.022 111.861 216.387L111.73 215.853L111.563 215.955L111.875 216.423C112.148 217.591 112.851 218.613 113.845 219.284L113.84 219.269ZM96.4682 188.93C96.4792 188.984 96.4982 189.036 96.5247 189.084C96.5341 189.11 96.5963 189.104 96.6347 189.114L96.4528 188.936C95.8663 186.319 94.4946 184.089 92.9422 181.955C92.8601 181.46 93.1413 180.78 92.258 180.661C92.2495 180.918 92.3037 181.173 92.4158 181.404C92.5279 181.635 92.6947 181.835 92.9016 181.987C93.5245 184.608 94.913 186.82 96.4739 188.945L96.4682 188.93ZM60.7884 71.4918C60.5189 71.4891 60.2528 71.5526 60.0137 71.6769C59.7745 71.8012 59.5696 71.9824 59.417 72.2045C56.0347 75.5242 53.3564 79.4909 51.5422 83.8678C51.4411 84.0214 51.3381 84.1699 51.244 84.3267C51.2908 84.3678 51.34 84.4062 51.3912 84.4418L51.5848 83.9046C51.8316 83.8141 52.1403 83.8291 52.3147 83.6369C55.7811 80.0349 58.1277 75.6374 60.779 71.4662C60.8329 71.4552 60.8849 71.4361 60.9332 71.4096C60.9332 71.4096 60.9536 71.338 60.9628 71.2997L60.7884 71.4918ZM161.209 303.693L160.76 303.374L160.65 303.537L161.204 303.695C162.47 305.352 164.257 306.264 166.14 306.995C168.659 307.965 171.203 308.874 173.733 309.81C180.379 312.264 187.247 314.07 194.241 315.202C202.69 316.584 211.222 317.493 219.724 318.606C222.897 319.021 226.134 319.168 229.221 319.936C232.063 320.703 234.982 321.153 237.923 321.278C245.323 321.437 252.685 322.274 260.094 322.22C263.492 322.198 266.895 322.336 270.295 322.4C266.431 322.215 262.624 321.42 258.773 321.382C253.245 321.335 247.854 320.229 242.349 319.737C236.845 319.244 231.408 318.237 225.93 317.513C220.646 316.811 215.31 316.414 210.073 315.473C202.587 314.14 194.975 313.435 187.491 311.996C181.199 310.776 175.005 309.096 168.959 306.97C166.296 306.035 164.136 303.978 161.209 303.693ZM173.687 175.534C172.772 175.456 172.389 175.428 171.996 175.391C167.034 175.154 162.07 174.894 157.105 174.711C153.498 174.576 149.951 173.838 146.299 173.977C142.879 174.066 139.451 173.161 136.02 173.138C130.449 173.1 124.919 172.378 119.355 172.361C118.281 172.359 117.081 172.887 116.154 172.568C112.814 171.41 109.352 172.225 105.966 171.818C101.101 171.271 96.2623 170.528 91.3831 170.214C90.7203 170.172 89.8684 169.884 89.4163 170.353C88.9643 170.821 89.4457 171.641 89.7221 172.204C91.7532 176.296 93.7554 180.404 95.9196 184.429C99.0367 190.226 102.168 196.029 105.508 201.703C108.063 206.045 110.234 210.598 113.092 214.765C115.33 218.023 117.809 221.094 119.961 224.418C121.905 227.412 123.255 227.499 126.426 225.812C129.933 223.943 132.367 220.848 135.319 218.355C138.188 215.939 140.595 213.011 143.211 210.316C144.479 209.006 145.42 207.484 146.632 206.147C150.915 201.512 155.209 196.89 159.266 192.052C161.8 189.024 164.606 186.23 167.054 183.077C168.965 180.611 171.22 178.298 173.682 175.536L173.687 175.534ZM51.0054 167.121L51.6127 167.044C49.0605 147.714 45.2052 128.536 44.921 108.951C43.874 111.788 44.2563 114.707 44.2236 117.528C44.1324 125.579 45.6456 133.537 46.9566 141.453C47.8689 147.009 48.3492 152.596 49.3031 158.155C49.8194 161.153 50.4339 164.132 51.0054 167.121ZM304.388 292.615C295.356 293.935 286.503 296.476 277.287 296.499C286.73 298.048 295.681 296.204 304.388 292.615ZM46.7829 108.018C47.2775 100.605 49.5437 93.6033 52.2345 86.7255C47.2572 93.0608 46.6751 100.441 46.7829 108.018ZM318.235 310.116C321.054 309.613 323.098 307.698 325.44 306.309C322.491 306.568 320.628 308.802 318.235 310.116ZM234.7 291.595L234.767 291.046C231.287 290.796 227.898 289.807 224.342 290.208L234.7 291.595ZM123.565 232.624C124.633 234.167 125.576 235.72 127.328 236.762C127.107 234.856 125.143 232.727 123.565 232.624ZM213.836 288.67C216.955 289.018 219.993 289.909 223.129 289.697C220.058 289.162 217.008 288.241 213.846 288.696L213.836 288.67ZM114.776 220.773C115.983 222.078 116.131 224.022 117.941 225.619C117.613 223.071 116.731 221.588 114.776 220.773ZM75.2394 152.413C75.3082 154.393 75.7222 156.345 76.4628 158.182C76.5622 156.185 76.1406 154.197 75.2394 152.413V152.413ZM144.491 253.239C144.508 253.286 144.494 253.36 144.541 253.378C144.598 253.401 144.658 253.414 144.719 253.418L144.67 253.173L144.491 253.239Z" fill="white"/>
<g style="mix-blend-mode:multiply">
<g style="mix-blend-mode:multiply">
<path d="M98.1397 118.342C96.275 117.794 94.5445 116.865 93.0575 115.614C91.2778 114.227 89.2074 113.32 87.6409 111.529C85.7662 109.39 82.5964 108.904 80.4361 107.004C78.8752 105.642 76.6749 105.143 75.4567 103.3C75.2351 103 74.9243 102.777 74.5687 102.664C74.213 102.551 73.8306 102.552 73.4758 102.669C72.8716 102.85 73.1573 103.613 73.1221 104.121C72.7038 110.597 74.0473 116.916 74.9004 123.281C75.6579 129.051 76.5053 134.812 77.318 140.574C78.0738 145.815 79.2774 150.973 80.4945 156.121C80.7285 157.125 81.2933 157.25 82.2034 157.394C89.3932 158.539 96.6158 159.328 103.892 159.928C107.317 160.205 110.768 160.075 114.164 160.526C119.906 161.286 125.724 160.82 131.456 161.852C133.851 162.212 136.279 162.312 138.697 162.151C143.582 162.007 148.47 162.299 153.303 163.024C156.696 163.498 160.201 163.023 163.58 164.208C164.907 164.647 166.76 163.863 168.39 163.999C171.524 164.26 173.594 166.519 175.79 168.278C177.723 169.842 179.792 171.239 181.709 172.808C182.596 173.526 183.322 174.029 181.671 174.518C180.957 174.733 181.295 175.273 181.122 175.646C180.179 177.67 179.551 179.916 177.17 180.865C177.043 180.912 176.938 181.005 176.875 181.125C176.137 185.474 172.551 188.001 170.15 191.265C168.656 193.299 166.912 195.156 165.325 197.189C162.98 200.24 160.277 203.014 157.812 205.975C153.211 211.508 148.516 216.959 144.38 222.869C141.909 226.386 139.039 229.612 136.885 233.374C135.538 235.727 134.587 238.237 133.422 240.657C133.226 241.061 132.883 241.589 133.443 242.13C136.545 245.071 139.481 248.277 142.763 251.041C147.244 254.817 152.359 257.824 156.871 261.542C163.55 267.034 171.026 271.186 178.508 275.353C180.544 276.483 182.479 277.865 184.813 278.489C186.855 279.033 188.087 278.384 188.605 276.283C188.745 275.623 189.002 274.994 189.364 274.425C191.394 271.452 192.467 267.929 192.437 264.33C192.433 261.791 193.43 259.229 192.358 256.703C193.818 255.183 192.393 253.398 192.835 251.645C193.873 247.716 193.322 243.431 192.992 239.526C192.579 234.777 193.19 230.13 192.952 225.41C192.58 217.925 193.068 210.398 193.265 202.891C193.342 199.92 193 196.823 193.586 194.033C194.393 190.159 193.208 186.293 194.313 182.293C195.795 183.87 197.591 184.872 199.17 186.158C199.991 186.807 200.055 187.745 200.061 188.745C200.056 195.395 199.884 202.048 200.144 208.689C200.519 218.521 200.499 228.37 200.373 238.188C200.399 243.54 200.063 248.889 199.369 254.196C199.017 256.656 199.755 259.24 200.061 261.762C200.847 268.262 203.004 274.522 206.388 280.127C207.026 281.198 207.774 282.316 207.625 283.706C207.532 284.596 208.191 284.914 208.864 285.034C212.117 285.619 215.363 286.217 218.666 286.544C223.645 287.049 228.575 287.851 233.543 288.296C238.123 288.702 242.593 289.872 247.224 289.939C249.705 289.979 252.177 290.453 254.663 290.76C255.064 290.805 255.551 290.987 255.818 290.651C256.085 290.314 255.678 289.95 255.441 289.623C254.43 288.043 253.66 286.32 253.158 284.511C252.823 283.519 252.289 282.604 251.59 281.824C249.517 279.478 248.463 276.654 247.322 273.797C246.75 272.364 245.614 270.968 244.663 269.616C243.314 267.71 242.157 265.675 241.211 263.54C239.157 258.845 236.444 254.485 234.214 249.884C231.985 245.282 229.465 240.828 227.573 236.115C226.812 234.214 225.774 232.497 224.951 230.666C224.011 228.581 222.657 226.654 221.891 224.517C219.99 219.206 217.1 214.346 215.158 209.051C213.758 205.234 211.398 201.788 209.869 197.984C209.316 196.603 208.68 195.251 207.935 193.554C209.574 194.169 211.036 195.178 212.191 196.492C215.032 199.471 218.443 201.774 221.536 204.486C223.705 206.376 225.077 208.542 225.071 211.452C225.063 211.652 225.115 211.849 225.222 212.018C225.329 212.187 225.485 212.32 225.669 212.398C225.918 212.512 226.136 212.682 226.308 212.896C226.479 213.109 226.598 213.359 226.656 213.627C227.397 217.603 230.052 220.725 231.523 224.387C234.461 231.683 238.683 238.362 242.217 245.375C243.49 247.892 244.49 250.509 245.736 253.029C246.526 254.628 247.362 256.209 248.084 257.844C249.696 261.413 251.334 264.973 252.815 268.596C254.012 271.542 256.465 273.573 258.079 276.21C260.765 280.591 264.226 284.386 267.486 288.329C269.144 290.338 271.121 291.594 274.051 291.696C287.569 292.164 300.394 289.354 312.768 284.204C313.836 283.76 314.334 284.213 315.061 284.78C320.107 288.837 324.855 293.251 329.27 297.988C329.684 298.418 330.186 298.817 330.626 299.192L330.623 299.595C328.767 300.893 326.502 301.508 324.72 302.977C326.085 304.155 326.974 303.002 328.024 302.447C328.594 302.14 329.373 301.592 329.811 302.375C330.185 303.059 329.339 303.329 328.845 303.621C324.958 305.932 321.037 308.168 316.928 310.095C312.07 312.29 307.059 314.127 301.934 315.593C295.247 317.614 288.23 318.148 281.487 320.021C276.016 321.544 270.283 321.968 264.641 322.12C258.462 322.351 252.273 322.149 246.122 321.517C239.903 320.809 233.62 320.706 227.387 319.944C221.594 319.237 215.765 319.021 210.036 317.614C205.741 316.555 201.258 316.207 196.841 315.659C188.925 314.766 181.109 313.146 173.491 310.82C163.961 307.794 155.182 303.27 146.711 298.091C141.662 295.007 136.63 291.94 131.997 288.179C127.25 284.315 122.005 281.047 117.418 276.966C113.499 273.468 109.861 269.558 105.779 266.154C103.036 263.874 101.137 260.952 98.838 258.357C97.6613 257.04 96.2118 256.045 95.149 254.658C93.3495 252.311 91.5458 249.937 89.6765 247.686C84.5821 241.553 80.2081 234.953 75.844 228.332C71.146 221.198 67.3508 213.552 63.2609 206.073C59.0239 198.303 54.9884 190.495 51.2438 182.511C49.3305 178.422 48.0836 174.084 46.8802 169.753C45.0887 163.278 44.5201 156.576 43.254 150.007C42.5881 146.859 42.1021 143.676 41.7982 140.472C41.3624 134.514 39.7508 128.736 39.3894 122.773C39.1402 118.675 39.3568 114.575 39.2146 110.467C39.0786 106.566 39.8727 102.61 40.9806 98.8415C43.0582 91.7865 43.9544 84.3082 47.9779 77.9323C49.968 74.7726 51.9195 71.5397 54.909 69.0857C57.0429 67.3359 59.7419 66.7773 62.0066 65.3524L62.4173 65.3591C65.2253 67.7698 67.9034 70.3276 70.4404 73.0218C73.4493 76.0904 76.9194 78.6519 80.5085 81.4903C77.8478 82.0582 77.1857 83.9733 76.5641 86.0309C75.9425 88.0885 75.1207 89.934 74.4115 91.8956C73.9776 93.0977 73.8087 94.1794 75.2428 95.0053C78.8033 97.05 81.6394 100.077 85.1226 102.261C90.2537 105.472 95.3443 108.779 100.259 112.274C108.297 117.991 117.55 121.438 125.844 126.612C128.523 128.287 131.395 129.71 133.581 132.253C137.003 136.242 140.823 139.853 144.482 143.615C145.22 144.37 146.02 145.073 146.986 145.989C144.265 145.693 141.877 145.334 140.258 143.084C140.069 142.845 139.826 142.656 139.549 142.53C139.272 142.405 138.969 142.348 138.665 142.363C137.312 142.347 135.953 142.251 135.884 140.394C135.877 140.233 135.666 139.943 135.552 139.933C132.112 139.982 130.64 136.525 127.674 135.655C123.493 134.432 120.154 131.607 116.498 129.399C111.916 126.633 107.506 123.577 102.765 121.033C101.185 120.191 99.6759 119.223 98.1335 118.309C98.1875 118.298 98.2395 118.279 98.2877 118.252C98.3134 118.243 98.3063 118.176 98.3155 118.137L98.1397 118.342ZM135.245 246.328L134.84 245.894C134.594 244.411 133.383 244.098 132.216 243.715C132.788 244.743 133.719 245.522 134.832 245.903L135.237 246.308C135.248 246.362 135.267 246.414 135.294 246.462C135.305 246.493 135.37 246.48 135.414 246.488L135.245 246.328ZM137.651 248.406C137.64 248.352 137.621 248.3 137.595 248.252C137.595 248.252 137.521 248.226 137.483 248.217L137.654 248.399L138.053 248.835C138.034 248.946 138.042 249.059 138.075 249.167C138.109 249.274 138.168 249.371 138.246 249.451C138.325 249.531 138.422 249.591 138.529 249.626C138.636 249.661 138.749 249.67 138.86 249.652C138.867 250.099 139.018 250.433 139.538 250.435C139.615 250.407 139.802 250.28 139.792 250.237C139.66 249.767 139.252 249.718 138.852 249.661C138.87 249.551 138.862 249.439 138.829 249.333C138.796 249.226 138.739 249.129 138.662 249.049C138.585 248.969 138.491 248.907 138.386 248.87C138.281 248.832 138.169 248.82 138.058 248.833L137.651 248.406ZM113.57 268.221L113.762 268.395L113.586 268.203L113.211 267.863L113.059 268.07L113.57 268.221ZM165.832 270.807C165.845 270.254 165.546 270.026 165.02 269.992C164.706 269.279 164.098 269.164 163.395 269.154C163.241 269.053 163.091 268.945 162.934 268.851C162.934 268.851 162.866 268.952 162.826 269.002L163.373 269.174C163.644 269.913 164.279 270.054 164.981 270.029C164.963 270.584 165.267 270.81 165.788 270.846C165.989 271.09 166.239 271.289 166.522 271.43C166.805 271.571 167.114 271.652 167.43 271.666C167.837 272.49 168.602 272.763 169.431 272.942C169.677 273.23 169.986 273.458 170.334 273.607C170.682 273.756 171.06 273.823 171.438 273.803C172.292 275.401 174.182 275.593 175.4 276.656C177.965 278.879 181.242 279.676 184.127 281.246C184.229 281.302 184.456 281.125 184.718 281.029C184.596 280.855 184.45 280.699 184.285 280.564C181.919 279.294 179.474 278.145 177.192 276.756C175.383 275.58 173.466 274.58 171.466 273.769C171.223 273.476 170.914 273.244 170.564 273.094C170.214 272.944 169.833 272.879 169.453 272.905C169.211 271.77 168.313 271.721 167.408 271.686C167.125 270.962 166.531 270.789 165.817 270.83L165.832 270.807ZM64.2339 199.615C64.2332 200.058 64.1759 200.522 64.6214 200.831C65.3165 203.489 66.8648 205.835 68.0872 208.23C71.4002 214.736 75.184 220.999 78.6301 227.438C83.3216 236.288 89.6629 243.944 96.0668 251.548C99.2865 255.366 103.104 258.651 106.353 262.471C107.944 264.346 110.121 265.751 112.378 267.644C112.333 267.229 112.203 266.828 111.995 266.466C111.787 266.104 111.506 265.789 111.17 265.541C109.588 263.994 108.114 262.344 106.588 260.759C102.475 256.476 98.3019 252.284 94.8078 247.447C91.5504 242.937 87.8835 238.758 84.8827 234.026C81.6166 228.872 77.7453 224.103 75.0246 218.593C72.9882 214.439 70.2634 210.666 68.2928 206.453C67.3595 204.465 66.5225 202.278 64.7167 200.772C64.6899 200.334 64.7626 199.864 64.3073 199.577C64.2609 199.18 64.2519 198.758 63.7456 198.617C63.695 198.607 63.5458 198.772 63.5329 198.864C63.4571 199.405 63.7896 199.58 64.2339 199.615ZM48.1461 167.64L48.0821 166.178C47.6198 166.825 47.6447 167.259 48.1274 167.653C48.0611 168.807 48.1154 169.941 48.8937 170.903C48.9108 171.776 48.6321 172.718 49.6927 173.622C49.5936 172.493 49.4974 171.643 48.8885 170.905C48.9538 169.774 48.6985 168.647 48.1518 167.655L48.1461 167.64ZM110.053 217.482C110.102 217.79 110.076 218.149 110.542 218.148C110.574 218.139 110.602 218.122 110.626 218.1C110.649 218.077 110.666 218.048 110.675 218.017C110.712 217.578 110.405 217.504 110.067 217.471C110.048 216.068 109.206 215.235 108.07 214.602L107.943 214.066L107.777 214.168L108.088 214.637C108.361 215.804 109.065 216.826 110.059 217.497L110.053 217.482ZM92.6818 187.143C92.6953 187.196 92.7142 187.248 92.7383 187.297C92.7496 187.328 92.8151 187.316 92.8534 187.325L92.6734 187.152C92.0851 184.53 90.7153 182.305 89.1558 180.168C89.0737 179.673 89.3601 178.992 88.4768 178.873C88.4659 179.129 88.5185 179.385 88.6299 179.616C88.7412 179.848 88.9079 180.048 89.1152 180.2C89.7176 182.829 91.1112 185.039 92.6875 187.158L92.6818 187.143ZM56.989 69.733C56.7195 69.7303 56.4534 69.7938 56.2143 69.9181C55.9751 70.0424 55.7702 70.2236 55.6176 70.4457C52.2345 73.7663 49.5566 77.735 47.7447 82.1141C47.6417 82.2626 47.5354 82.4181 47.4413 82.575C47.4889 82.6167 47.5399 82.6546 47.5936 82.6881L47.7854 82.1458C48.027 82.0572 48.3427 82.0754 48.5102 81.88C51.9817 78.2761 54.3251 73.8856 56.9744 69.7092C57.0284 69.6982 57.0803 69.6792 57.1286 69.6527C57.1594 69.6414 57.1471 69.576 57.1564 69.5376L56.989 69.733ZM157.402 301.914L156.955 301.6L156.843 301.758L157.399 301.921C158.665 303.578 160.452 304.49 162.333 305.216C164.849 306.193 167.396 307.094 169.928 308.036C176.579 310.488 183.452 312.292 190.452 313.422C198.906 314.802 207.438 315.712 215.934 316.826C219.107 317.242 222.35 317.387 225.436 318.154C228.277 318.921 231.194 319.371 234.134 319.498C241.538 319.655 248.901 320.492 256.307 320.445C259.709 320.421 263.108 320.561 266.507 320.626C262.649 320.438 258.839 319.639 254.99 319.605C249.462 319.558 244.071 318.453 238.567 317.96C233.062 317.467 227.624 316.455 222.145 315.731C216.861 315.029 211.526 314.632 206.289 313.692C198.802 312.358 191.191 311.653 183.707 310.214C177.416 309 171.223 307.327 165.177 305.21C162.509 304.248 160.318 302.202 157.423 301.906L157.402 301.914ZM169.882 173.76C168.96 173.679 168.584 173.654 168.189 173.612C163.224 173.381 158.263 173.115 153.298 172.931C149.693 172.802 146.144 172.059 142.492 172.198C139.082 172.312 135.641 171.389 132.215 171.363C126.639 171.328 121.113 170.604 115.548 170.582C114.475 170.58 113.276 171.112 112.347 170.789C109.007 169.631 105.545 170.446 102.159 170.038C97.2936 169.492 92.4554 168.749 87.5761 168.435C86.9082 168.394 86.0614 168.105 85.6094 168.573C85.1574 169.042 85.6388 169.862 85.9171 170.43C87.9463 174.516 89.9503 178.629 92.1126 182.649C95.2265 188.453 98.3558 194.251 101.703 199.929C104.256 204.266 106.422 208.821 109.285 212.986C111.523 216.244 113.999 219.321 116.154 222.639C118.099 225.637 119.448 225.72 122.621 224.037C126.128 222.169 128.56 219.068 131.512 216.576C134.376 214.162 136.788 211.232 139.404 208.536C140.672 207.226 141.613 205.704 142.826 204.368C147.118 199.775 151.386 195.163 155.441 190.319C157.977 187.297 160.783 184.503 163.231 181.35C165.179 178.824 167.436 176.534 169.898 173.754L169.882 173.76ZM47.219 165.335L47.8263 165.258C45.2741 145.927 41.4188 126.749 41.1038 107.175C40.0638 110.016 40.4442 112.93 40.4115 115.75C40.317 123.808 41.8354 131.765 43.1394 139.677C44.0587 145.237 44.5319 150.82 45.491 156.377C46.0279 159.368 46.6391 162.354 47.219 165.335ZM300.601 290.84C291.575 292.163 282.716 294.701 273.504 294.723C282.93 296.272 291.897 294.423 300.601 290.84V290.84ZM42.9727 106.245C43.4705 98.8257 45.7335 91.8309 48.4294 84.9512C43.4676 91.2809 42.879 98.6755 42.9727 106.245ZM314.449 308.329C317.269 307.831 319.312 305.911 321.654 304.522C318.705 304.781 316.836 306.999 314.449 308.329ZM230.913 289.808L230.982 289.264C227.502 289.014 224.111 288.02 220.558 288.426L230.913 289.808ZM119.779 230.837C120.848 232.385 121.784 233.935 123.536 234.977C123.305 233.075 121.364 230.961 119.779 230.837ZM210.061 286.914C213.178 287.257 216.213 288.154 219.353 287.941C216.269 287.37 213.229 286.458 210.061 286.914ZM110.989 218.986C112.192 220.293 112.346 222.241 114.157 223.838C113.827 221.284 112.941 219.791 110.989 218.986ZM71.453 150.626C71.5199 152.606 71.934 154.558 72.6764 156.395C72.7703 154.399 72.349 152.412 71.453 150.626V150.626ZM140.704 251.452C140.721 251.499 140.708 251.573 140.755 251.591C140.802 251.609 140.87 251.619 140.928 251.633L140.881 251.393L140.704 251.452Z" fill="#FFE2D5"/>
</g>
</g>
</svg>
